G04 #@! TF.GenerationSoftware,KiCad,Pcbnew,(5.1.5)-3*
G04 #@! TF.CreationDate,2019-12-18T19:33:25+05:30*
G04 #@! TF.ProjectId,555_Badge,3535355f-4261-4646-9765-2e6b69636164,v01*
G04 #@! TF.SameCoordinates,Original*
G04 #@! TF.FileFunction,Copper,L2,Bot*
G04 #@! TF.FilePolarity,Positive*
%FSLAX46Y46*%
G04 Gerber Fmt 4.6, Leading zero omitted, Abs format (unit mm)*
G04 Created by KiCad (PCBNEW (5.1.5)-3) date 2019-12-18 19:33:25*
%MOMM*%
%LPD*%
G04 APERTURE LIST*
%ADD10C,0.150000*%
%ADD11R,2.170000X2.170000*%
%ADD12C,2.500000*%
%ADD13R,1.600000X1.600000*%
%ADD14C,1.600000*%
%ADD15R,1.800000X1.800000*%
%ADD16C,1.800000*%
%ADD17R,1.500000X1.000000*%
%ADD18O,1.500000X1.000000*%
%ADD19C,1.400000*%
%ADD20O,1.400000X1.400000*%
%ADD21O,1.600000X1.600000*%
%ADD22R,1.900000X1.900000*%
%ADD23C,1.900000*%
%ADD24C,1.524000*%
%ADD25C,0.250000*%
%ADD26C,0.254000*%
G04 APERTURE END LIST*
D10*
X113428571Y-131785714D02*
X113190476Y-132452380D01*
X112952380Y-131785714D01*
X112047619Y-132452380D02*
X112619047Y-132452380D01*
X112333333Y-132452380D02*
X112333333Y-131452380D01*
X112428571Y-131595238D01*
X112523809Y-131690476D01*
X112619047Y-131738095D01*
X111619047Y-132357142D02*
X111571428Y-132404761D01*
X111619047Y-132452380D01*
X111666666Y-132404761D01*
X111619047Y-132357142D01*
X111619047Y-132452380D01*
X110952380Y-131452380D02*
X110857142Y-131452380D01*
X110761904Y-131500000D01*
X110714285Y-131547619D01*
X110666666Y-131642857D01*
X110619047Y-131833333D01*
X110619047Y-132071428D01*
X110666666Y-132261904D01*
X110714285Y-132357142D01*
X110761904Y-132404761D01*
X110857142Y-132452380D01*
X110952380Y-132452380D01*
X111047619Y-132404761D01*
X111095238Y-132357142D01*
X111142857Y-132261904D01*
X111190476Y-132071428D01*
X111190476Y-131833333D01*
X111142857Y-131642857D01*
X111095238Y-131547619D01*
X111047619Y-131500000D01*
X110952380Y-131452380D01*
D11*
X43180000Y-125730000D03*
D12*
X63180000Y-125730000D03*
D13*
X69628000Y-128778000D03*
D14*
X71628000Y-128778000D03*
X63794000Y-88646000D03*
D13*
X66294000Y-88646000D03*
D15*
X96774000Y-78994000D03*
D16*
X99314000Y-78994000D03*
D15*
X87376000Y-78486000D03*
D16*
X89916000Y-78486000D03*
D17*
X63246000Y-79756000D03*
D18*
X63246000Y-77216000D03*
X63246000Y-78486000D03*
D19*
X58420000Y-103632000D03*
D20*
X58420000Y-96012000D03*
D14*
X64262000Y-103886000D03*
D21*
X64262000Y-96266000D03*
X71628000Y-103886000D03*
D14*
X71628000Y-96266000D03*
X78740000Y-96520000D03*
D21*
X78740000Y-104140000D03*
D14*
X74168000Y-83566000D03*
D21*
X74168000Y-91186000D03*
X93218000Y-95758000D03*
D14*
X93218000Y-103378000D03*
D21*
X86000000Y-96380000D03*
D14*
X86000000Y-104000000D03*
D22*
X75906000Y-135890000D03*
D23*
X73406000Y-135890000D03*
X70906000Y-135890000D03*
D24*
X67310000Y-123190000D03*
X69850000Y-123190000D03*
X72390000Y-123190000D03*
X74930000Y-123190000D03*
X74930000Y-115570000D03*
X72390000Y-115570000D03*
X69850000Y-115570000D03*
X67310000Y-115570000D03*
D25*
X70828001Y-103086001D02*
X71628000Y-103886000D01*
X65437001Y-97695001D02*
X70828001Y-103086001D01*
X65437001Y-90289001D02*
X65437001Y-97695001D01*
X63794000Y-88646000D02*
X65437001Y-90289001D01*
X71628001Y-114808001D02*
X72390000Y-115570000D01*
X70452999Y-113632999D02*
X71628001Y-114808001D01*
X70452999Y-103588369D02*
X70452999Y-113632999D01*
X64262000Y-97397370D02*
X70452999Y-103588369D01*
X64262000Y-96266000D02*
X64262000Y-97397370D01*
X69850000Y-118110000D02*
X72390000Y-115570000D01*
X69850000Y-123190000D02*
X69850000Y-118110000D01*
X69088000Y-78486000D02*
X74168000Y-83566000D01*
X63246000Y-78486000D02*
X69088000Y-78486000D01*
X78740000Y-115762370D02*
X78740000Y-105271370D01*
X72390000Y-122112370D02*
X78740000Y-115762370D01*
X78740000Y-105271370D02*
X78740000Y-104140000D01*
X72390000Y-123190000D02*
X72390000Y-122112370D01*
D26*
G36*
X126340001Y-139040000D02*
G01*
X38760000Y-139040000D01*
X38760000Y-135733891D01*
X69321000Y-135733891D01*
X69321000Y-136046109D01*
X69381911Y-136352327D01*
X69501391Y-136640779D01*
X69674850Y-136900379D01*
X69895621Y-137121150D01*
X70155221Y-137294609D01*
X70443673Y-137414089D01*
X70749891Y-137475000D01*
X71062109Y-137475000D01*
X71368327Y-137414089D01*
X71656779Y-137294609D01*
X71916379Y-137121150D01*
X72137150Y-136900379D01*
X72156000Y-136872168D01*
X72174850Y-136900379D01*
X72395621Y-137121150D01*
X72655221Y-137294609D01*
X72943673Y-137414089D01*
X73249891Y-137475000D01*
X73562109Y-137475000D01*
X73868327Y-137414089D01*
X74156779Y-137294609D01*
X74394186Y-137135979D01*
X74425463Y-137194494D01*
X74504815Y-137291185D01*
X74601506Y-137370537D01*
X74711820Y-137429502D01*
X74831518Y-137465812D01*
X74956000Y-137478072D01*
X76856000Y-137478072D01*
X76980482Y-137465812D01*
X77100180Y-137429502D01*
X77210494Y-137370537D01*
X77307185Y-137291185D01*
X77386537Y-137194494D01*
X77445502Y-137084180D01*
X77481812Y-136964482D01*
X77494072Y-136840000D01*
X77494072Y-134940000D01*
X77481812Y-134815518D01*
X77445502Y-134695820D01*
X77386537Y-134585506D01*
X77307185Y-134488815D01*
X77210494Y-134409463D01*
X77100180Y-134350498D01*
X76980482Y-134314188D01*
X76856000Y-134301928D01*
X74956000Y-134301928D01*
X74831518Y-134314188D01*
X74711820Y-134350498D01*
X74601506Y-134409463D01*
X74504815Y-134488815D01*
X74425463Y-134585506D01*
X74394186Y-134644021D01*
X74156779Y-134485391D01*
X73868327Y-134365911D01*
X73562109Y-134305000D01*
X73249891Y-134305000D01*
X72943673Y-134365911D01*
X72655221Y-134485391D01*
X72395621Y-134658850D01*
X72174850Y-134879621D01*
X72156000Y-134907832D01*
X72137150Y-134879621D01*
X71916379Y-134658850D01*
X71656779Y-134485391D01*
X71368327Y-134365911D01*
X71062109Y-134305000D01*
X70749891Y-134305000D01*
X70443673Y-134365911D01*
X70155221Y-134485391D01*
X69895621Y-134658850D01*
X69674850Y-134879621D01*
X69501391Y-135139221D01*
X69381911Y-135427673D01*
X69321000Y-135733891D01*
X38760000Y-135733891D01*
X38760000Y-130607500D01*
X109718572Y-130607500D01*
X109718572Y-133527500D01*
X114281429Y-133527500D01*
X114281429Y-130607500D01*
X109718572Y-130607500D01*
X38760000Y-130607500D01*
X38760000Y-127978000D01*
X68189928Y-127978000D01*
X68189928Y-129578000D01*
X68202188Y-129702482D01*
X68238498Y-129822180D01*
X68297463Y-129932494D01*
X68376815Y-130029185D01*
X68473506Y-130108537D01*
X68583820Y-130167502D01*
X68703518Y-130203812D01*
X68828000Y-130216072D01*
X70428000Y-130216072D01*
X70552482Y-130203812D01*
X70672180Y-130167502D01*
X70782494Y-130108537D01*
X70879185Y-130029185D01*
X70892790Y-130012607D01*
X70948273Y-130049680D01*
X71209426Y-130157853D01*
X71486665Y-130213000D01*
X71769335Y-130213000D01*
X72046574Y-130157853D01*
X72307727Y-130049680D01*
X72542759Y-129892637D01*
X72742637Y-129692759D01*
X72899680Y-129457727D01*
X73007853Y-129196574D01*
X73063000Y-128919335D01*
X73063000Y-128636665D01*
X73007853Y-128359426D01*
X72899680Y-128098273D01*
X72742637Y-127863241D01*
X72542759Y-127663363D01*
X72307727Y-127506320D01*
X72046574Y-127398147D01*
X71769335Y-127343000D01*
X71486665Y-127343000D01*
X71209426Y-127398147D01*
X70948273Y-127506320D01*
X70892790Y-127543393D01*
X70879185Y-127526815D01*
X70782494Y-127447463D01*
X70672180Y-127388498D01*
X70552482Y-127352188D01*
X70428000Y-127339928D01*
X68828000Y-127339928D01*
X68703518Y-127352188D01*
X68583820Y-127388498D01*
X68473506Y-127447463D01*
X68376815Y-127526815D01*
X68297463Y-127623506D01*
X68238498Y-127733820D01*
X68202188Y-127853518D01*
X68189928Y-127978000D01*
X38760000Y-127978000D01*
X38760000Y-126815000D01*
X41456928Y-126815000D01*
X41469188Y-126939482D01*
X41505498Y-127059180D01*
X41564463Y-127169494D01*
X41643815Y-127266185D01*
X41740506Y-127345537D01*
X41850820Y-127404502D01*
X41970518Y-127440812D01*
X42095000Y-127453072D01*
X42894250Y-127450000D01*
X43053000Y-127291250D01*
X43053000Y-125857000D01*
X43307000Y-125857000D01*
X43307000Y-127291250D01*
X43465750Y-127450000D01*
X44265000Y-127453072D01*
X44389482Y-127440812D01*
X44509180Y-127404502D01*
X44619494Y-127345537D01*
X44716185Y-127266185D01*
X44795537Y-127169494D01*
X44854502Y-127059180D01*
X44890812Y-126939482D01*
X44903072Y-126815000D01*
X44900000Y-126015750D01*
X44741250Y-125857000D01*
X43307000Y-125857000D01*
X43053000Y-125857000D01*
X41618750Y-125857000D01*
X41460000Y-126015750D01*
X41456928Y-126815000D01*
X38760000Y-126815000D01*
X38760000Y-124645000D01*
X41456928Y-124645000D01*
X41460000Y-125444250D01*
X41618750Y-125603000D01*
X43053000Y-125603000D01*
X43053000Y-124168750D01*
X43307000Y-124168750D01*
X43307000Y-125603000D01*
X44741250Y-125603000D01*
X44799906Y-125544344D01*
X61295000Y-125544344D01*
X61295000Y-125915656D01*
X61367439Y-126279834D01*
X61509534Y-126622882D01*
X61715825Y-126931618D01*
X61978382Y-127194175D01*
X62287118Y-127400466D01*
X62630166Y-127542561D01*
X62994344Y-127615000D01*
X63365656Y-127615000D01*
X63729834Y-127542561D01*
X64072882Y-127400466D01*
X64381618Y-127194175D01*
X64644175Y-126931618D01*
X64850466Y-126622882D01*
X64992561Y-126279834D01*
X65065000Y-125915656D01*
X65065000Y-125544344D01*
X64992561Y-125180166D01*
X64850466Y-124837118D01*
X64644175Y-124528382D01*
X64381618Y-124265825D01*
X64216603Y-124155565D01*
X66524040Y-124155565D01*
X66591020Y-124395656D01*
X66840048Y-124512756D01*
X67107135Y-124579023D01*
X67382017Y-124591910D01*
X67654133Y-124550922D01*
X67913023Y-124457636D01*
X68028980Y-124395656D01*
X68095960Y-124155565D01*
X67310000Y-123369605D01*
X66524040Y-124155565D01*
X64216603Y-124155565D01*
X64072882Y-124059534D01*
X63729834Y-123917439D01*
X63365656Y-123845000D01*
X62994344Y-123845000D01*
X62630166Y-123917439D01*
X62287118Y-124059534D01*
X61978382Y-124265825D01*
X61715825Y-124528382D01*
X61509534Y-124837118D01*
X61367439Y-125180166D01*
X61295000Y-125544344D01*
X44799906Y-125544344D01*
X44900000Y-125444250D01*
X44903072Y-124645000D01*
X44890812Y-124520518D01*
X44866179Y-124439311D01*
X47597130Y-124439311D01*
X47605831Y-124569028D01*
X47639671Y-124694555D01*
X47697350Y-124811068D01*
X47776651Y-124914090D01*
X47874527Y-124999662D01*
X47987217Y-125064495D01*
X48110390Y-125106096D01*
X48239311Y-125122870D01*
X48369028Y-125114169D01*
X48494555Y-125080329D01*
X48611068Y-125022650D01*
X48714090Y-124943349D01*
X48778220Y-124869997D01*
X49926777Y-123262017D01*
X65908090Y-123262017D01*
X65949078Y-123534133D01*
X66042364Y-123793023D01*
X66104344Y-123908980D01*
X66344435Y-123975960D01*
X67130395Y-123190000D01*
X66344435Y-122404040D01*
X66104344Y-122471020D01*
X65987244Y-122720048D01*
X65920977Y-122987135D01*
X65908090Y-123262017D01*
X49926777Y-123262017D01*
X50667907Y-122224435D01*
X66524040Y-122224435D01*
X67310000Y-123010395D01*
X68095960Y-122224435D01*
X68028980Y-121984344D01*
X67779952Y-121867244D01*
X67512865Y-121800977D01*
X67237983Y-121788090D01*
X66965867Y-121829078D01*
X66706977Y-121922364D01*
X66591020Y-121984344D01*
X66524040Y-122224435D01*
X50667907Y-122224435D01*
X55165907Y-115927237D01*
X55214495Y-115842784D01*
X55256096Y-115719611D01*
X55272870Y-115590690D01*
X55264169Y-115460972D01*
X55230329Y-115335445D01*
X55172650Y-115218932D01*
X55093349Y-115115910D01*
X54995473Y-115030338D01*
X54882783Y-114965505D01*
X54759610Y-114923904D01*
X54630689Y-114907130D01*
X54500971Y-114915831D01*
X54375444Y-114949671D01*
X54258931Y-115007350D01*
X54155909Y-115086651D01*
X54091779Y-115160003D01*
X47704093Y-124102764D01*
X47655505Y-124187217D01*
X47613904Y-124310390D01*
X47597130Y-124439311D01*
X44866179Y-124439311D01*
X44854502Y-124400820D01*
X44795537Y-124290506D01*
X44716185Y-124193815D01*
X44619494Y-124114463D01*
X44509180Y-124055498D01*
X44389482Y-124019188D01*
X44265000Y-124006928D01*
X43465750Y-124010000D01*
X43307000Y-124168750D01*
X43053000Y-124168750D01*
X42894250Y-124010000D01*
X42095000Y-124006928D01*
X41970518Y-124019188D01*
X41850820Y-124055498D01*
X41740506Y-124114463D01*
X41643815Y-124193815D01*
X41564463Y-124290506D01*
X41505498Y-124400820D01*
X41469188Y-124520518D01*
X41456928Y-124645000D01*
X38760000Y-124645000D01*
X38760000Y-103500514D01*
X57085000Y-103500514D01*
X57085000Y-103763486D01*
X57136304Y-104021405D01*
X57236939Y-104264359D01*
X57383038Y-104483013D01*
X57568987Y-104668962D01*
X57787641Y-104815061D01*
X58030595Y-104915696D01*
X58288514Y-104967000D01*
X58551486Y-104967000D01*
X58809405Y-104915696D01*
X59052359Y-104815061D01*
X59271013Y-104668962D01*
X59456962Y-104483013D01*
X59603061Y-104264359D01*
X59703696Y-104021405D01*
X59755000Y-103763486D01*
X59755000Y-103744665D01*
X62827000Y-103744665D01*
X62827000Y-104027335D01*
X62882147Y-104304574D01*
X62990320Y-104565727D01*
X63147363Y-104800759D01*
X63347241Y-105000637D01*
X63582273Y-105157680D01*
X63843426Y-105265853D01*
X64120665Y-105321000D01*
X64403335Y-105321000D01*
X64680574Y-105265853D01*
X64941727Y-105157680D01*
X65176759Y-105000637D01*
X65376637Y-104800759D01*
X65533680Y-104565727D01*
X65641853Y-104304574D01*
X65697000Y-104027335D01*
X65697000Y-103744665D01*
X65641853Y-103467426D01*
X65533680Y-103206273D01*
X65376637Y-102971241D01*
X65176759Y-102771363D01*
X64941727Y-102614320D01*
X64680574Y-102506147D01*
X64403335Y-102451000D01*
X64120665Y-102451000D01*
X63843426Y-102506147D01*
X63582273Y-102614320D01*
X63347241Y-102771363D01*
X63147363Y-102971241D01*
X62990320Y-103206273D01*
X62882147Y-103467426D01*
X62827000Y-103744665D01*
X59755000Y-103744665D01*
X59755000Y-103500514D01*
X59703696Y-103242595D01*
X59603061Y-102999641D01*
X59456962Y-102780987D01*
X59271013Y-102595038D01*
X59052359Y-102448939D01*
X58809405Y-102348304D01*
X58551486Y-102297000D01*
X58288514Y-102297000D01*
X58030595Y-102348304D01*
X57787641Y-102448939D01*
X57568987Y-102595038D01*
X57383038Y-102780987D01*
X57236939Y-102999641D01*
X57136304Y-103242595D01*
X57085000Y-103500514D01*
X38760000Y-103500514D01*
X38760000Y-95880514D01*
X57085000Y-95880514D01*
X57085000Y-96143486D01*
X57136304Y-96401405D01*
X57236939Y-96644359D01*
X57383038Y-96863013D01*
X57568987Y-97048962D01*
X57787641Y-97195061D01*
X58030595Y-97295696D01*
X58288514Y-97347000D01*
X58551486Y-97347000D01*
X58809405Y-97295696D01*
X59052359Y-97195061D01*
X59271013Y-97048962D01*
X59456962Y-96863013D01*
X59603061Y-96644359D01*
X59703696Y-96401405D01*
X59755000Y-96143486D01*
X59755000Y-96124665D01*
X62827000Y-96124665D01*
X62827000Y-96407335D01*
X62882147Y-96684574D01*
X62990320Y-96945727D01*
X63147363Y-97180759D01*
X63347241Y-97380637D01*
X63507203Y-97487520D01*
X63512144Y-97537680D01*
X63512998Y-97546355D01*
X63556454Y-97689616D01*
X63627026Y-97821646D01*
X63691210Y-97899853D01*
X63722000Y-97937371D01*
X63750998Y-97961169D01*
X69692999Y-103903171D01*
X69693000Y-113595667D01*
X69689323Y-113632999D01*
X69703997Y-113781984D01*
X69747453Y-113925245D01*
X69818025Y-114057275D01*
X69855104Y-114102455D01*
X69912999Y-114173000D01*
X69712408Y-114173000D01*
X69442510Y-114226686D01*
X69188273Y-114331995D01*
X68959465Y-114484880D01*
X68764880Y-114679465D01*
X68611995Y-114908273D01*
X68580000Y-114985515D01*
X68548005Y-114908273D01*
X68395120Y-114679465D01*
X68200535Y-114484880D01*
X67971727Y-114331995D01*
X67717490Y-114226686D01*
X67447592Y-114173000D01*
X67172408Y-114173000D01*
X66902510Y-114226686D01*
X66648273Y-114331995D01*
X66419465Y-114484880D01*
X66224880Y-114679465D01*
X66071995Y-114908273D01*
X65966686Y-115162510D01*
X65913000Y-115432408D01*
X65913000Y-115707592D01*
X65966686Y-115977490D01*
X66071995Y-116231727D01*
X66224880Y-116460535D01*
X66419465Y-116655120D01*
X66648273Y-116808005D01*
X66902510Y-116913314D01*
X67172408Y-116967000D01*
X67447592Y-116967000D01*
X67717490Y-116913314D01*
X67971727Y-116808005D01*
X68200535Y-116655120D01*
X68395120Y-116460535D01*
X68548005Y-116231727D01*
X68580000Y-116154485D01*
X68611995Y-116231727D01*
X68764880Y-116460535D01*
X68959465Y-116655120D01*
X69188273Y-116808005D01*
X69442510Y-116913314D01*
X69712408Y-116967000D01*
X69918199Y-116967000D01*
X69338998Y-117546201D01*
X69310000Y-117569999D01*
X69286202Y-117598997D01*
X69286201Y-117598998D01*
X69215026Y-117685724D01*
X69144454Y-117817754D01*
X69100998Y-117961015D01*
X69086324Y-118110000D01*
X69090001Y-118147332D01*
X69090000Y-122017659D01*
X68959465Y-122104880D01*
X68764880Y-122299465D01*
X68611995Y-122528273D01*
X68582308Y-122599943D01*
X68577636Y-122586977D01*
X68515656Y-122471020D01*
X68275565Y-122404040D01*
X67489605Y-123190000D01*
X68275565Y-123975960D01*
X68515656Y-123908980D01*
X68579485Y-123773240D01*
X68611995Y-123851727D01*
X68764880Y-124080535D01*
X68959465Y-124275120D01*
X69188273Y-124428005D01*
X69442510Y-124533314D01*
X69712408Y-124587000D01*
X69987592Y-124587000D01*
X70257490Y-124533314D01*
X70511727Y-124428005D01*
X70740535Y-124275120D01*
X70935120Y-124080535D01*
X71088005Y-123851727D01*
X71120000Y-123774485D01*
X71151995Y-123851727D01*
X71304880Y-124080535D01*
X71499465Y-124275120D01*
X71728273Y-124428005D01*
X71982510Y-124533314D01*
X72252408Y-124587000D01*
X72527592Y-124587000D01*
X72797490Y-124533314D01*
X73051727Y-124428005D01*
X73280535Y-124275120D01*
X73475120Y-124080535D01*
X73628005Y-123851727D01*
X73660000Y-123774485D01*
X73691995Y-123851727D01*
X73844880Y-124080535D01*
X74039465Y-124275120D01*
X74268273Y-124428005D01*
X74522510Y-124533314D01*
X74792408Y-124587000D01*
X75067592Y-124587000D01*
X75337490Y-124533314D01*
X75591727Y-124428005D01*
X75820535Y-124275120D01*
X76015120Y-124080535D01*
X76168005Y-123851727D01*
X76273314Y-123597490D01*
X76327000Y-123327592D01*
X76327000Y-123052408D01*
X76273314Y-122782510D01*
X76168005Y-122528273D01*
X76015120Y-122299465D01*
X75820535Y-122104880D01*
X75591727Y-121951995D01*
X75337490Y-121846686D01*
X75067592Y-121793000D01*
X74792408Y-121793000D01*
X74522510Y-121846686D01*
X74268273Y-121951995D01*
X74039465Y-122104880D01*
X73844880Y-122299465D01*
X73691995Y-122528273D01*
X73660000Y-122605515D01*
X73628005Y-122528273D01*
X73475120Y-122299465D01*
X73376413Y-122200758D01*
X79251004Y-116326168D01*
X79280001Y-116302371D01*
X79337977Y-116231727D01*
X79374974Y-116186647D01*
X79445546Y-116054617D01*
X79445546Y-116054616D01*
X79489003Y-115911356D01*
X79500000Y-115799703D01*
X79500000Y-115799694D01*
X79503676Y-115762371D01*
X79500000Y-115725048D01*
X79500000Y-105358043D01*
X79654759Y-105254637D01*
X79854637Y-105054759D01*
X80011680Y-104819727D01*
X80119853Y-104558574D01*
X80175000Y-104281335D01*
X80175000Y-103998665D01*
X80147152Y-103858665D01*
X84565000Y-103858665D01*
X84565000Y-104141335D01*
X84620147Y-104418574D01*
X84728320Y-104679727D01*
X84885363Y-104914759D01*
X85085241Y-105114637D01*
X85320273Y-105271680D01*
X85581426Y-105379853D01*
X85858665Y-105435000D01*
X86141335Y-105435000D01*
X86418574Y-105379853D01*
X86679727Y-105271680D01*
X86914759Y-105114637D01*
X87114637Y-104914759D01*
X87271680Y-104679727D01*
X87379853Y-104418574D01*
X87435000Y-104141335D01*
X87435000Y-103858665D01*
X87379853Y-103581426D01*
X87271680Y-103320273D01*
X87215816Y-103236665D01*
X91783000Y-103236665D01*
X91783000Y-103519335D01*
X91838147Y-103796574D01*
X91946320Y-104057727D01*
X92103363Y-104292759D01*
X92303241Y-104492637D01*
X92538273Y-104649680D01*
X92799426Y-104757853D01*
X93076665Y-104813000D01*
X93359335Y-104813000D01*
X93636574Y-104757853D01*
X93897727Y-104649680D01*
X94132759Y-104492637D01*
X94332637Y-104292759D01*
X94489680Y-104057727D01*
X94597853Y-103796574D01*
X94653000Y-103519335D01*
X94653000Y-103236665D01*
X94597853Y-102959426D01*
X94489680Y-102698273D01*
X94332637Y-102463241D01*
X94132759Y-102263363D01*
X93897727Y-102106320D01*
X93636574Y-101998147D01*
X93359335Y-101943000D01*
X93076665Y-101943000D01*
X92799426Y-101998147D01*
X92538273Y-102106320D01*
X92303241Y-102263363D01*
X92103363Y-102463241D01*
X91946320Y-102698273D01*
X91838147Y-102959426D01*
X91783000Y-103236665D01*
X87215816Y-103236665D01*
X87114637Y-103085241D01*
X86914759Y-102885363D01*
X86679727Y-102728320D01*
X86418574Y-102620147D01*
X86141335Y-102565000D01*
X85858665Y-102565000D01*
X85581426Y-102620147D01*
X85320273Y-102728320D01*
X85085241Y-102885363D01*
X84885363Y-103085241D01*
X84728320Y-103320273D01*
X84620147Y-103581426D01*
X84565000Y-103858665D01*
X80147152Y-103858665D01*
X80119853Y-103721426D01*
X80011680Y-103460273D01*
X79854637Y-103225241D01*
X79654759Y-103025363D01*
X79419727Y-102868320D01*
X79158574Y-102760147D01*
X78881335Y-102705000D01*
X78598665Y-102705000D01*
X78321426Y-102760147D01*
X78060273Y-102868320D01*
X77825241Y-103025363D01*
X77625363Y-103225241D01*
X77468320Y-103460273D01*
X77360147Y-103721426D01*
X77305000Y-103998665D01*
X77305000Y-104281335D01*
X77360147Y-104558574D01*
X77468320Y-104819727D01*
X77625363Y-105054759D01*
X77825241Y-105254637D01*
X77980001Y-105358044D01*
X77980000Y-115447568D01*
X71878998Y-121548571D01*
X71850000Y-121572369D01*
X71826202Y-121601367D01*
X71826201Y-121601368D01*
X71755026Y-121688094D01*
X71684454Y-121820124D01*
X71640998Y-121963385D01*
X71636051Y-122013616D01*
X71499465Y-122104880D01*
X71304880Y-122299465D01*
X71151995Y-122528273D01*
X71120000Y-122605515D01*
X71088005Y-122528273D01*
X70935120Y-122299465D01*
X70740535Y-122104880D01*
X70610000Y-122017659D01*
X70610000Y-118424801D01*
X72098430Y-116936372D01*
X72252408Y-116967000D01*
X72527592Y-116967000D01*
X72797490Y-116913314D01*
X73051727Y-116808005D01*
X73280535Y-116655120D01*
X73475120Y-116460535D01*
X73628005Y-116231727D01*
X73660000Y-116154485D01*
X73691995Y-116231727D01*
X73844880Y-116460535D01*
X74039465Y-116655120D01*
X74268273Y-116808005D01*
X74522510Y-116913314D01*
X74792408Y-116967000D01*
X75067592Y-116967000D01*
X75337490Y-116913314D01*
X75591727Y-116808005D01*
X75820535Y-116655120D01*
X76015120Y-116460535D01*
X76168005Y-116231727D01*
X76273314Y-115977490D01*
X76327000Y-115707592D01*
X76327000Y-115432408D01*
X76273314Y-115162510D01*
X76168005Y-114908273D01*
X76015120Y-114679465D01*
X75820535Y-114484880D01*
X75591727Y-114331995D01*
X75337490Y-114226686D01*
X75067592Y-114173000D01*
X74792408Y-114173000D01*
X74522510Y-114226686D01*
X74268273Y-114331995D01*
X74039465Y-114484880D01*
X73844880Y-114679465D01*
X73691995Y-114908273D01*
X73660000Y-114985515D01*
X73628005Y-114908273D01*
X73475120Y-114679465D01*
X73280535Y-114484880D01*
X73051727Y-114331995D01*
X72797490Y-114226686D01*
X72527592Y-114173000D01*
X72252408Y-114173000D01*
X72098430Y-114203628D01*
X71212999Y-113318198D01*
X71212999Y-105257897D01*
X71278961Y-105277904D01*
X71501000Y-105155915D01*
X71501000Y-104013000D01*
X71755000Y-104013000D01*
X71755000Y-105155915D01*
X71977039Y-105277904D01*
X72111087Y-105237246D01*
X72365420Y-105117037D01*
X72591414Y-104949519D01*
X72780385Y-104741131D01*
X72925070Y-104499881D01*
X73019909Y-104235040D01*
X72898624Y-104013000D01*
X71755000Y-104013000D01*
X71501000Y-104013000D01*
X71481000Y-104013000D01*
X71481000Y-103759000D01*
X71501000Y-103759000D01*
X71501000Y-102616085D01*
X71755000Y-102616085D01*
X71755000Y-103759000D01*
X72898624Y-103759000D01*
X73019909Y-103536960D01*
X72925070Y-103272119D01*
X72780385Y-103030869D01*
X72591414Y-102822481D01*
X72365420Y-102654963D01*
X72111087Y-102534754D01*
X71977039Y-102494096D01*
X71755000Y-102616085D01*
X71501000Y-102616085D01*
X71278961Y-102494096D01*
X71144913Y-102534754D01*
X70890580Y-102654963D01*
X70720481Y-102781049D01*
X65248414Y-97308982D01*
X65376637Y-97180759D01*
X65533680Y-96945727D01*
X65641853Y-96684574D01*
X65697000Y-96407335D01*
X65697000Y-96124665D01*
X70193000Y-96124665D01*
X70193000Y-96407335D01*
X70248147Y-96684574D01*
X70356320Y-96945727D01*
X70513363Y-97180759D01*
X70713241Y-97380637D01*
X70948273Y-97537680D01*
X71209426Y-97645853D01*
X71486665Y-97701000D01*
X71769335Y-97701000D01*
X72046574Y-97645853D01*
X72307727Y-97537680D01*
X72542759Y-97380637D01*
X72742637Y-97180759D01*
X72899680Y-96945727D01*
X73007853Y-96684574D01*
X73063000Y-96407335D01*
X73063000Y-96378665D01*
X77305000Y-96378665D01*
X77305000Y-96661335D01*
X77360147Y-96938574D01*
X77468320Y-97199727D01*
X77625363Y-97434759D01*
X77825241Y-97634637D01*
X78060273Y-97791680D01*
X78321426Y-97899853D01*
X78598665Y-97955000D01*
X78881335Y-97955000D01*
X79158574Y-97899853D01*
X79419727Y-97791680D01*
X79654759Y-97634637D01*
X79854637Y-97434759D01*
X80011680Y-97199727D01*
X80119853Y-96938574D01*
X80175000Y-96661335D01*
X80175000Y-96378665D01*
X80147152Y-96238665D01*
X84565000Y-96238665D01*
X84565000Y-96521335D01*
X84620147Y-96798574D01*
X84728320Y-97059727D01*
X84885363Y-97294759D01*
X85085241Y-97494637D01*
X85320273Y-97651680D01*
X85581426Y-97759853D01*
X85858665Y-97815000D01*
X86141335Y-97815000D01*
X86418574Y-97759853D01*
X86679727Y-97651680D01*
X86914759Y-97494637D01*
X87114637Y-97294759D01*
X87271680Y-97059727D01*
X87379853Y-96798574D01*
X87435000Y-96521335D01*
X87435000Y-96238665D01*
X87379853Y-95961426D01*
X87271680Y-95700273D01*
X87215816Y-95616665D01*
X91783000Y-95616665D01*
X91783000Y-95899335D01*
X91838147Y-96176574D01*
X91946320Y-96437727D01*
X92103363Y-96672759D01*
X92303241Y-96872637D01*
X92538273Y-97029680D01*
X92799426Y-97137853D01*
X93076665Y-97193000D01*
X93359335Y-97193000D01*
X93636574Y-97137853D01*
X93897727Y-97029680D01*
X94132759Y-96872637D01*
X94332637Y-96672759D01*
X94489680Y-96437727D01*
X94597853Y-96176574D01*
X94653000Y-95899335D01*
X94653000Y-95616665D01*
X94597853Y-95339426D01*
X94489680Y-95078273D01*
X94332637Y-94843241D01*
X94132759Y-94643363D01*
X93897727Y-94486320D01*
X93636574Y-94378147D01*
X93359335Y-94323000D01*
X93076665Y-94323000D01*
X92799426Y-94378147D01*
X92538273Y-94486320D01*
X92303241Y-94643363D01*
X92103363Y-94843241D01*
X91946320Y-95078273D01*
X91838147Y-95339426D01*
X91783000Y-95616665D01*
X87215816Y-95616665D01*
X87114637Y-95465241D01*
X86914759Y-95265363D01*
X86679727Y-95108320D01*
X86418574Y-95000147D01*
X86141335Y-94945000D01*
X85858665Y-94945000D01*
X85581426Y-95000147D01*
X85320273Y-95108320D01*
X85085241Y-95265363D01*
X84885363Y-95465241D01*
X84728320Y-95700273D01*
X84620147Y-95961426D01*
X84565000Y-96238665D01*
X80147152Y-96238665D01*
X80119853Y-96101426D01*
X80011680Y-95840273D01*
X79854637Y-95605241D01*
X79654759Y-95405363D01*
X79419727Y-95248320D01*
X79158574Y-95140147D01*
X78881335Y-95085000D01*
X78598665Y-95085000D01*
X78321426Y-95140147D01*
X78060273Y-95248320D01*
X77825241Y-95405363D01*
X77625363Y-95605241D01*
X77468320Y-95840273D01*
X77360147Y-96101426D01*
X77305000Y-96378665D01*
X73063000Y-96378665D01*
X73063000Y-96124665D01*
X73007853Y-95847426D01*
X72899680Y-95586273D01*
X72742637Y-95351241D01*
X72542759Y-95151363D01*
X72307727Y-94994320D01*
X72046574Y-94886147D01*
X71769335Y-94831000D01*
X71486665Y-94831000D01*
X71209426Y-94886147D01*
X70948273Y-94994320D01*
X70713241Y-95151363D01*
X70513363Y-95351241D01*
X70356320Y-95586273D01*
X70248147Y-95847426D01*
X70193000Y-96124665D01*
X65697000Y-96124665D01*
X65641853Y-95847426D01*
X65533680Y-95586273D01*
X65376637Y-95351241D01*
X65176759Y-95151363D01*
X64941727Y-94994320D01*
X64680574Y-94886147D01*
X64403335Y-94831000D01*
X64120665Y-94831000D01*
X63843426Y-94886147D01*
X63582273Y-94994320D01*
X63347241Y-95151363D01*
X63147363Y-95351241D01*
X62990320Y-95586273D01*
X62882147Y-95847426D01*
X62827000Y-96124665D01*
X59755000Y-96124665D01*
X59755000Y-95880514D01*
X59703696Y-95622595D01*
X59603061Y-95379641D01*
X59456962Y-95160987D01*
X59271013Y-94975038D01*
X59052359Y-94828939D01*
X58809405Y-94728304D01*
X58551486Y-94677000D01*
X58288514Y-94677000D01*
X58030595Y-94728304D01*
X57787641Y-94828939D01*
X57568987Y-94975038D01*
X57383038Y-95160987D01*
X57236939Y-95379641D01*
X57136304Y-95622595D01*
X57085000Y-95880514D01*
X38760000Y-95880514D01*
X38760000Y-91044665D01*
X72733000Y-91044665D01*
X72733000Y-91327335D01*
X72788147Y-91604574D01*
X72896320Y-91865727D01*
X73053363Y-92100759D01*
X73253241Y-92300637D01*
X73488273Y-92457680D01*
X73749426Y-92565853D01*
X74026665Y-92621000D01*
X74309335Y-92621000D01*
X74586574Y-92565853D01*
X74847727Y-92457680D01*
X75082759Y-92300637D01*
X75282637Y-92100759D01*
X75439680Y-91865727D01*
X75547853Y-91604574D01*
X75603000Y-91327335D01*
X75603000Y-91044665D01*
X75547853Y-90767426D01*
X75439680Y-90506273D01*
X75282637Y-90271241D01*
X75082759Y-90071363D01*
X74847727Y-89914320D01*
X74586574Y-89806147D01*
X74309335Y-89751000D01*
X74026665Y-89751000D01*
X73749426Y-89806147D01*
X73488273Y-89914320D01*
X73253241Y-90071363D01*
X73053363Y-90271241D01*
X72896320Y-90506273D01*
X72788147Y-90767426D01*
X72733000Y-91044665D01*
X38760000Y-91044665D01*
X38760000Y-89638702D01*
X62980903Y-89638702D01*
X63052486Y-89882671D01*
X63307996Y-90003571D01*
X63582184Y-90072300D01*
X63864512Y-90086217D01*
X64144130Y-90044787D01*
X64410292Y-89949603D01*
X64535514Y-89882671D01*
X64607097Y-89638702D01*
X63794000Y-88825605D01*
X62980903Y-89638702D01*
X38760000Y-89638702D01*
X38760000Y-88716512D01*
X62353783Y-88716512D01*
X62395213Y-88996130D01*
X62490397Y-89262292D01*
X62557329Y-89387514D01*
X62801298Y-89459097D01*
X63614395Y-88646000D01*
X63973605Y-88646000D01*
X64786702Y-89459097D01*
X64855928Y-89438785D01*
X64855928Y-89446000D01*
X64868188Y-89570482D01*
X64904498Y-89690180D01*
X64963463Y-89800494D01*
X65042815Y-89897185D01*
X65139506Y-89976537D01*
X65249820Y-90035502D01*
X65369518Y-90071812D01*
X65494000Y-90084072D01*
X67094000Y-90084072D01*
X67218482Y-90071812D01*
X67338180Y-90035502D01*
X67448494Y-89976537D01*
X67545185Y-89897185D01*
X67624537Y-89800494D01*
X67683502Y-89690180D01*
X67719812Y-89570482D01*
X67732072Y-89446000D01*
X67732072Y-87846000D01*
X67719812Y-87721518D01*
X67683502Y-87601820D01*
X67624537Y-87491506D01*
X67545185Y-87394815D01*
X67448494Y-87315463D01*
X67338180Y-87256498D01*
X67218482Y-87220188D01*
X67094000Y-87207928D01*
X65494000Y-87207928D01*
X65369518Y-87220188D01*
X65249820Y-87256498D01*
X65139506Y-87315463D01*
X65042815Y-87394815D01*
X64963463Y-87491506D01*
X64904498Y-87601820D01*
X64868188Y-87721518D01*
X64855928Y-87846000D01*
X64855928Y-87853215D01*
X64786702Y-87832903D01*
X63973605Y-88646000D01*
X63614395Y-88646000D01*
X62801298Y-87832903D01*
X62557329Y-87904486D01*
X62436429Y-88159996D01*
X62367700Y-88434184D01*
X62353783Y-88716512D01*
X38760000Y-88716512D01*
X38760000Y-87653298D01*
X62980903Y-87653298D01*
X63794000Y-88466395D01*
X64607097Y-87653298D01*
X64535514Y-87409329D01*
X64280004Y-87288429D01*
X64005816Y-87219700D01*
X63723488Y-87205783D01*
X63443870Y-87247213D01*
X63177708Y-87342397D01*
X63052486Y-87409329D01*
X62980903Y-87653298D01*
X38760000Y-87653298D01*
X38760000Y-80256000D01*
X61857928Y-80256000D01*
X61870188Y-80380482D01*
X61906498Y-80500180D01*
X61965463Y-80610494D01*
X62044815Y-80707185D01*
X62141506Y-80786537D01*
X62251820Y-80845502D01*
X62371518Y-80881812D01*
X62496000Y-80894072D01*
X62960250Y-80891000D01*
X63119000Y-80732250D01*
X63119000Y-79883000D01*
X63373000Y-79883000D01*
X63373000Y-80732250D01*
X63531750Y-80891000D01*
X63996000Y-80894072D01*
X64120482Y-80881812D01*
X64240180Y-80845502D01*
X64350494Y-80786537D01*
X64447185Y-80707185D01*
X64526537Y-80610494D01*
X64585502Y-80500180D01*
X64621812Y-80380482D01*
X64634072Y-80256000D01*
X64631000Y-80041750D01*
X64472250Y-79883000D01*
X63373000Y-79883000D01*
X63119000Y-79883000D01*
X62019750Y-79883000D01*
X61861000Y-80041750D01*
X61857928Y-80256000D01*
X38760000Y-80256000D01*
X38760000Y-77216000D01*
X61855509Y-77216000D01*
X61877423Y-77438499D01*
X61942324Y-77652447D01*
X62047716Y-77849623D01*
X62048846Y-77851000D01*
X62047716Y-77852377D01*
X61942324Y-78049553D01*
X61877423Y-78263501D01*
X61855509Y-78486000D01*
X61877423Y-78708499D01*
X61942324Y-78922447D01*
X61948297Y-78933621D01*
X61906498Y-79011820D01*
X61870188Y-79131518D01*
X61857928Y-79256000D01*
X61861000Y-79470250D01*
X62019750Y-79629000D01*
X63119000Y-79629000D01*
X63119000Y-79621000D01*
X63373000Y-79621000D01*
X63373000Y-79629000D01*
X64472250Y-79629000D01*
X64631000Y-79470250D01*
X64634072Y-79256000D01*
X64633087Y-79246000D01*
X68773199Y-79246000D01*
X72769312Y-83242114D01*
X72733000Y-83424665D01*
X72733000Y-83707335D01*
X72788147Y-83984574D01*
X72896320Y-84245727D01*
X73053363Y-84480759D01*
X73253241Y-84680637D01*
X73488273Y-84837680D01*
X73749426Y-84945853D01*
X74026665Y-85001000D01*
X74309335Y-85001000D01*
X74586574Y-84945853D01*
X74847727Y-84837680D01*
X75082759Y-84680637D01*
X75282637Y-84480759D01*
X75439680Y-84245727D01*
X75547853Y-83984574D01*
X75603000Y-83707335D01*
X75603000Y-83424665D01*
X75547853Y-83147426D01*
X75439680Y-82886273D01*
X75282637Y-82651241D01*
X75082759Y-82451363D01*
X74847727Y-82294320D01*
X74586574Y-82186147D01*
X74309335Y-82131000D01*
X74026665Y-82131000D01*
X73844114Y-82167312D01*
X69651804Y-77975003D01*
X69628001Y-77945999D01*
X69512276Y-77851026D01*
X69380247Y-77780454D01*
X69236986Y-77736997D01*
X69125333Y-77726000D01*
X69125322Y-77726000D01*
X69088000Y-77722324D01*
X69050678Y-77726000D01*
X64510361Y-77726000D01*
X64549676Y-77652447D01*
X64569832Y-77586000D01*
X85837928Y-77586000D01*
X85837928Y-79386000D01*
X85850188Y-79510482D01*
X85886498Y-79630180D01*
X85945463Y-79740494D01*
X86024815Y-79837185D01*
X86121506Y-79916537D01*
X86231820Y-79975502D01*
X86351518Y-80011812D01*
X86476000Y-80024072D01*
X88276000Y-80024072D01*
X88400482Y-80011812D01*
X88520180Y-79975502D01*
X88630494Y-79916537D01*
X88727185Y-79837185D01*
X88806537Y-79740494D01*
X88865502Y-79630180D01*
X88871056Y-79611873D01*
X88937495Y-79678312D01*
X89188905Y-79846299D01*
X89468257Y-79962011D01*
X89764816Y-80021000D01*
X90067184Y-80021000D01*
X90363743Y-79962011D01*
X90643095Y-79846299D01*
X90894505Y-79678312D01*
X91108312Y-79464505D01*
X91276299Y-79213095D01*
X91392011Y-78933743D01*
X91451000Y-78637184D01*
X91451000Y-78334816D01*
X91403099Y-78094000D01*
X95235928Y-78094000D01*
X95235928Y-79894000D01*
X95248188Y-80018482D01*
X95284498Y-80138180D01*
X95343463Y-80248494D01*
X95422815Y-80345185D01*
X95519506Y-80424537D01*
X95629820Y-80483502D01*
X95749518Y-80519812D01*
X95874000Y-80532072D01*
X97674000Y-80532072D01*
X97798482Y-80519812D01*
X97918180Y-80483502D01*
X98028494Y-80424537D01*
X98125185Y-80345185D01*
X98204537Y-80248494D01*
X98263502Y-80138180D01*
X98269056Y-80119873D01*
X98335495Y-80186312D01*
X98586905Y-80354299D01*
X98866257Y-80470011D01*
X99162816Y-80529000D01*
X99465184Y-80529000D01*
X99761743Y-80470011D01*
X100041095Y-80354299D01*
X100292505Y-80186312D01*
X100506312Y-79972505D01*
X100674299Y-79721095D01*
X100790011Y-79441743D01*
X100849000Y-79145184D01*
X100849000Y-78842816D01*
X100790011Y-78546257D01*
X100674299Y-78266905D01*
X100506312Y-78015495D01*
X100292505Y-77801688D01*
X100041095Y-77633701D01*
X99761743Y-77517989D01*
X99465184Y-77459000D01*
X99162816Y-77459000D01*
X98866257Y-77517989D01*
X98586905Y-77633701D01*
X98335495Y-77801688D01*
X98269056Y-77868127D01*
X98263502Y-77849820D01*
X98204537Y-77739506D01*
X98125185Y-77642815D01*
X98028494Y-77563463D01*
X97918180Y-77504498D01*
X97798482Y-77468188D01*
X97674000Y-77455928D01*
X95874000Y-77455928D01*
X95749518Y-77468188D01*
X95629820Y-77504498D01*
X95519506Y-77563463D01*
X95422815Y-77642815D01*
X95343463Y-77739506D01*
X95284498Y-77849820D01*
X95248188Y-77969518D01*
X95235928Y-78094000D01*
X91403099Y-78094000D01*
X91392011Y-78038257D01*
X91276299Y-77758905D01*
X91108312Y-77507495D01*
X90894505Y-77293688D01*
X90643095Y-77125701D01*
X90363743Y-77009989D01*
X90067184Y-76951000D01*
X89764816Y-76951000D01*
X89468257Y-77009989D01*
X89188905Y-77125701D01*
X88937495Y-77293688D01*
X88871056Y-77360127D01*
X88865502Y-77341820D01*
X88806537Y-77231506D01*
X88727185Y-77134815D01*
X88630494Y-77055463D01*
X88520180Y-76996498D01*
X88400482Y-76960188D01*
X88276000Y-76947928D01*
X86476000Y-76947928D01*
X86351518Y-76960188D01*
X86231820Y-76996498D01*
X86121506Y-77055463D01*
X86024815Y-77134815D01*
X85945463Y-77231506D01*
X85886498Y-77341820D01*
X85850188Y-77461518D01*
X85837928Y-77586000D01*
X64569832Y-77586000D01*
X64614577Y-77438499D01*
X64636491Y-77216000D01*
X64614577Y-76993501D01*
X64549676Y-76779553D01*
X64444284Y-76582377D01*
X64302449Y-76409551D01*
X64129623Y-76267716D01*
X63932447Y-76162324D01*
X63718499Y-76097423D01*
X63551752Y-76081000D01*
X62940248Y-76081000D01*
X62773501Y-76097423D01*
X62559553Y-76162324D01*
X62362377Y-76267716D01*
X62189551Y-76409551D01*
X62047716Y-76582377D01*
X61942324Y-76779553D01*
X61877423Y-76993501D01*
X61855509Y-77216000D01*
X38760000Y-77216000D01*
X38760000Y-64160000D01*
X126340000Y-64160000D01*
X126340001Y-139040000D01*
G37*
X126340001Y-139040000D02*
X38760000Y-139040000D01*
X38760000Y-135733891D01*
X69321000Y-135733891D01*
X69321000Y-136046109D01*
X69381911Y-136352327D01*
X69501391Y-136640779D01*
X69674850Y-136900379D01*
X69895621Y-137121150D01*
X70155221Y-137294609D01*
X70443673Y-137414089D01*
X70749891Y-137475000D01*
X71062109Y-137475000D01*
X71368327Y-137414089D01*
X71656779Y-137294609D01*
X71916379Y-137121150D01*
X72137150Y-136900379D01*
X72156000Y-136872168D01*
X72174850Y-136900379D01*
X72395621Y-137121150D01*
X72655221Y-137294609D01*
X72943673Y-137414089D01*
X73249891Y-137475000D01*
X73562109Y-137475000D01*
X73868327Y-137414089D01*
X74156779Y-137294609D01*
X74394186Y-137135979D01*
X74425463Y-137194494D01*
X74504815Y-137291185D01*
X74601506Y-137370537D01*
X74711820Y-137429502D01*
X74831518Y-137465812D01*
X74956000Y-137478072D01*
X76856000Y-137478072D01*
X76980482Y-137465812D01*
X77100180Y-137429502D01*
X77210494Y-137370537D01*
X77307185Y-137291185D01*
X77386537Y-137194494D01*
X77445502Y-137084180D01*
X77481812Y-136964482D01*
X77494072Y-136840000D01*
X77494072Y-134940000D01*
X77481812Y-134815518D01*
X77445502Y-134695820D01*
X77386537Y-134585506D01*
X77307185Y-134488815D01*
X77210494Y-134409463D01*
X77100180Y-134350498D01*
X76980482Y-134314188D01*
X76856000Y-134301928D01*
X74956000Y-134301928D01*
X74831518Y-134314188D01*
X74711820Y-134350498D01*
X74601506Y-134409463D01*
X74504815Y-134488815D01*
X74425463Y-134585506D01*
X74394186Y-134644021D01*
X74156779Y-134485391D01*
X73868327Y-134365911D01*
X73562109Y-134305000D01*
X73249891Y-134305000D01*
X72943673Y-134365911D01*
X72655221Y-134485391D01*
X72395621Y-134658850D01*
X72174850Y-134879621D01*
X72156000Y-134907832D01*
X72137150Y-134879621D01*
X71916379Y-134658850D01*
X71656779Y-134485391D01*
X71368327Y-134365911D01*
X71062109Y-134305000D01*
X70749891Y-134305000D01*
X70443673Y-134365911D01*
X70155221Y-134485391D01*
X69895621Y-134658850D01*
X69674850Y-134879621D01*
X69501391Y-135139221D01*
X69381911Y-135427673D01*
X69321000Y-135733891D01*
X38760000Y-135733891D01*
X38760000Y-130607500D01*
X109718572Y-130607500D01*
X109718572Y-133527500D01*
X114281429Y-133527500D01*
X114281429Y-130607500D01*
X109718572Y-130607500D01*
X38760000Y-130607500D01*
X38760000Y-127978000D01*
X68189928Y-127978000D01*
X68189928Y-129578000D01*
X68202188Y-129702482D01*
X68238498Y-129822180D01*
X68297463Y-129932494D01*
X68376815Y-130029185D01*
X68473506Y-130108537D01*
X68583820Y-130167502D01*
X68703518Y-130203812D01*
X68828000Y-130216072D01*
X70428000Y-130216072D01*
X70552482Y-130203812D01*
X70672180Y-130167502D01*
X70782494Y-130108537D01*
X70879185Y-130029185D01*
X70892790Y-130012607D01*
X70948273Y-130049680D01*
X71209426Y-130157853D01*
X71486665Y-130213000D01*
X71769335Y-130213000D01*
X72046574Y-130157853D01*
X72307727Y-130049680D01*
X72542759Y-129892637D01*
X72742637Y-129692759D01*
X72899680Y-129457727D01*
X73007853Y-129196574D01*
X73063000Y-128919335D01*
X73063000Y-128636665D01*
X73007853Y-128359426D01*
X72899680Y-128098273D01*
X72742637Y-127863241D01*
X72542759Y-127663363D01*
X72307727Y-127506320D01*
X72046574Y-127398147D01*
X71769335Y-127343000D01*
X71486665Y-127343000D01*
X71209426Y-127398147D01*
X70948273Y-127506320D01*
X70892790Y-127543393D01*
X70879185Y-127526815D01*
X70782494Y-127447463D01*
X70672180Y-127388498D01*
X70552482Y-127352188D01*
X70428000Y-127339928D01*
X68828000Y-127339928D01*
X68703518Y-127352188D01*
X68583820Y-127388498D01*
X68473506Y-127447463D01*
X68376815Y-127526815D01*
X68297463Y-127623506D01*
X68238498Y-127733820D01*
X68202188Y-127853518D01*
X68189928Y-127978000D01*
X38760000Y-127978000D01*
X38760000Y-126815000D01*
X41456928Y-126815000D01*
X41469188Y-126939482D01*
X41505498Y-127059180D01*
X41564463Y-127169494D01*
X41643815Y-127266185D01*
X41740506Y-127345537D01*
X41850820Y-127404502D01*
X41970518Y-127440812D01*
X42095000Y-127453072D01*
X42894250Y-127450000D01*
X43053000Y-127291250D01*
X43053000Y-125857000D01*
X43307000Y-125857000D01*
X43307000Y-127291250D01*
X43465750Y-127450000D01*
X44265000Y-127453072D01*
X44389482Y-127440812D01*
X44509180Y-127404502D01*
X44619494Y-127345537D01*
X44716185Y-127266185D01*
X44795537Y-127169494D01*
X44854502Y-127059180D01*
X44890812Y-126939482D01*
X44903072Y-126815000D01*
X44900000Y-126015750D01*
X44741250Y-125857000D01*
X43307000Y-125857000D01*
X43053000Y-125857000D01*
X41618750Y-125857000D01*
X41460000Y-126015750D01*
X41456928Y-126815000D01*
X38760000Y-126815000D01*
X38760000Y-124645000D01*
X41456928Y-124645000D01*
X41460000Y-125444250D01*
X41618750Y-125603000D01*
X43053000Y-125603000D01*
X43053000Y-124168750D01*
X43307000Y-124168750D01*
X43307000Y-125603000D01*
X44741250Y-125603000D01*
X44799906Y-125544344D01*
X61295000Y-125544344D01*
X61295000Y-125915656D01*
X61367439Y-126279834D01*
X61509534Y-126622882D01*
X61715825Y-126931618D01*
X61978382Y-127194175D01*
X62287118Y-127400466D01*
X62630166Y-127542561D01*
X62994344Y-127615000D01*
X63365656Y-127615000D01*
X63729834Y-127542561D01*
X64072882Y-127400466D01*
X64381618Y-127194175D01*
X64644175Y-126931618D01*
X64850466Y-126622882D01*
X64992561Y-126279834D01*
X65065000Y-125915656D01*
X65065000Y-125544344D01*
X64992561Y-125180166D01*
X64850466Y-124837118D01*
X64644175Y-124528382D01*
X64381618Y-124265825D01*
X64216603Y-124155565D01*
X66524040Y-124155565D01*
X66591020Y-124395656D01*
X66840048Y-124512756D01*
X67107135Y-124579023D01*
X67382017Y-124591910D01*
X67654133Y-124550922D01*
X67913023Y-124457636D01*
X68028980Y-124395656D01*
X68095960Y-124155565D01*
X67310000Y-123369605D01*
X66524040Y-124155565D01*
X64216603Y-124155565D01*
X64072882Y-124059534D01*
X63729834Y-123917439D01*
X63365656Y-123845000D01*
X62994344Y-123845000D01*
X62630166Y-123917439D01*
X62287118Y-124059534D01*
X61978382Y-124265825D01*
X61715825Y-124528382D01*
X61509534Y-124837118D01*
X61367439Y-125180166D01*
X61295000Y-125544344D01*
X44799906Y-125544344D01*
X44900000Y-125444250D01*
X44903072Y-124645000D01*
X44890812Y-124520518D01*
X44866179Y-124439311D01*
X47597130Y-124439311D01*
X47605831Y-124569028D01*
X47639671Y-124694555D01*
X47697350Y-124811068D01*
X47776651Y-124914090D01*
X47874527Y-124999662D01*
X47987217Y-125064495D01*
X48110390Y-125106096D01*
X48239311Y-125122870D01*
X48369028Y-125114169D01*
X48494555Y-125080329D01*
X48611068Y-125022650D01*
X48714090Y-124943349D01*
X48778220Y-124869997D01*
X49926777Y-123262017D01*
X65908090Y-123262017D01*
X65949078Y-123534133D01*
X66042364Y-123793023D01*
X66104344Y-123908980D01*
X66344435Y-123975960D01*
X67130395Y-123190000D01*
X66344435Y-122404040D01*
X66104344Y-122471020D01*
X65987244Y-122720048D01*
X65920977Y-122987135D01*
X65908090Y-123262017D01*
X49926777Y-123262017D01*
X50667907Y-122224435D01*
X66524040Y-122224435D01*
X67310000Y-123010395D01*
X68095960Y-122224435D01*
X68028980Y-121984344D01*
X67779952Y-121867244D01*
X67512865Y-121800977D01*
X67237983Y-121788090D01*
X66965867Y-121829078D01*
X66706977Y-121922364D01*
X66591020Y-121984344D01*
X66524040Y-122224435D01*
X50667907Y-122224435D01*
X55165907Y-115927237D01*
X55214495Y-115842784D01*
X55256096Y-115719611D01*
X55272870Y-115590690D01*
X55264169Y-115460972D01*
X55230329Y-115335445D01*
X55172650Y-115218932D01*
X55093349Y-115115910D01*
X54995473Y-115030338D01*
X54882783Y-114965505D01*
X54759610Y-114923904D01*
X54630689Y-114907130D01*
X54500971Y-114915831D01*
X54375444Y-114949671D01*
X54258931Y-115007350D01*
X54155909Y-115086651D01*
X54091779Y-115160003D01*
X47704093Y-124102764D01*
X47655505Y-124187217D01*
X47613904Y-124310390D01*
X47597130Y-124439311D01*
X44866179Y-124439311D01*
X44854502Y-124400820D01*
X44795537Y-124290506D01*
X44716185Y-124193815D01*
X44619494Y-124114463D01*
X44509180Y-124055498D01*
X44389482Y-124019188D01*
X44265000Y-124006928D01*
X43465750Y-124010000D01*
X43307000Y-124168750D01*
X43053000Y-124168750D01*
X42894250Y-124010000D01*
X42095000Y-124006928D01*
X41970518Y-124019188D01*
X41850820Y-124055498D01*
X41740506Y-124114463D01*
X41643815Y-124193815D01*
X41564463Y-124290506D01*
X41505498Y-124400820D01*
X41469188Y-124520518D01*
X41456928Y-124645000D01*
X38760000Y-124645000D01*
X38760000Y-103500514D01*
X57085000Y-103500514D01*
X57085000Y-103763486D01*
X57136304Y-104021405D01*
X57236939Y-104264359D01*
X57383038Y-104483013D01*
X57568987Y-104668962D01*
X57787641Y-104815061D01*
X58030595Y-104915696D01*
X58288514Y-104967000D01*
X58551486Y-104967000D01*
X58809405Y-104915696D01*
X59052359Y-104815061D01*
X59271013Y-104668962D01*
X59456962Y-104483013D01*
X59603061Y-104264359D01*
X59703696Y-104021405D01*
X59755000Y-103763486D01*
X59755000Y-103744665D01*
X62827000Y-103744665D01*
X62827000Y-104027335D01*
X62882147Y-104304574D01*
X62990320Y-104565727D01*
X63147363Y-104800759D01*
X63347241Y-105000637D01*
X63582273Y-105157680D01*
X63843426Y-105265853D01*
X64120665Y-105321000D01*
X64403335Y-105321000D01*
X64680574Y-105265853D01*
X64941727Y-105157680D01*
X65176759Y-105000637D01*
X65376637Y-104800759D01*
X65533680Y-104565727D01*
X65641853Y-104304574D01*
X65697000Y-104027335D01*
X65697000Y-103744665D01*
X65641853Y-103467426D01*
X65533680Y-103206273D01*
X65376637Y-102971241D01*
X65176759Y-102771363D01*
X64941727Y-102614320D01*
X64680574Y-102506147D01*
X64403335Y-102451000D01*
X64120665Y-102451000D01*
X63843426Y-102506147D01*
X63582273Y-102614320D01*
X63347241Y-102771363D01*
X63147363Y-102971241D01*
X62990320Y-103206273D01*
X62882147Y-103467426D01*
X62827000Y-103744665D01*
X59755000Y-103744665D01*
X59755000Y-103500514D01*
X59703696Y-103242595D01*
X59603061Y-102999641D01*
X59456962Y-102780987D01*
X59271013Y-102595038D01*
X59052359Y-102448939D01*
X58809405Y-102348304D01*
X58551486Y-102297000D01*
X58288514Y-102297000D01*
X58030595Y-102348304D01*
X57787641Y-102448939D01*
X57568987Y-102595038D01*
X57383038Y-102780987D01*
X57236939Y-102999641D01*
X57136304Y-103242595D01*
X57085000Y-103500514D01*
X38760000Y-103500514D01*
X38760000Y-95880514D01*
X57085000Y-95880514D01*
X57085000Y-96143486D01*
X57136304Y-96401405D01*
X57236939Y-96644359D01*
X57383038Y-96863013D01*
X57568987Y-97048962D01*
X57787641Y-97195061D01*
X58030595Y-97295696D01*
X58288514Y-97347000D01*
X58551486Y-97347000D01*
X58809405Y-97295696D01*
X59052359Y-97195061D01*
X59271013Y-97048962D01*
X59456962Y-96863013D01*
X59603061Y-96644359D01*
X59703696Y-96401405D01*
X59755000Y-96143486D01*
X59755000Y-96124665D01*
X62827000Y-96124665D01*
X62827000Y-96407335D01*
X62882147Y-96684574D01*
X62990320Y-96945727D01*
X63147363Y-97180759D01*
X63347241Y-97380637D01*
X63507203Y-97487520D01*
X63512144Y-97537680D01*
X63512998Y-97546355D01*
X63556454Y-97689616D01*
X63627026Y-97821646D01*
X63691210Y-97899853D01*
X63722000Y-97937371D01*
X63750998Y-97961169D01*
X69692999Y-103903171D01*
X69693000Y-113595667D01*
X69689323Y-113632999D01*
X69703997Y-113781984D01*
X69747453Y-113925245D01*
X69818025Y-114057275D01*
X69855104Y-114102455D01*
X69912999Y-114173000D01*
X69712408Y-114173000D01*
X69442510Y-114226686D01*
X69188273Y-114331995D01*
X68959465Y-114484880D01*
X68764880Y-114679465D01*
X68611995Y-114908273D01*
X68580000Y-114985515D01*
X68548005Y-114908273D01*
X68395120Y-114679465D01*
X68200535Y-114484880D01*
X67971727Y-114331995D01*
X67717490Y-114226686D01*
X67447592Y-114173000D01*
X67172408Y-114173000D01*
X66902510Y-114226686D01*
X66648273Y-114331995D01*
X66419465Y-114484880D01*
X66224880Y-114679465D01*
X66071995Y-114908273D01*
X65966686Y-115162510D01*
X65913000Y-115432408D01*
X65913000Y-115707592D01*
X65966686Y-115977490D01*
X66071995Y-116231727D01*
X66224880Y-116460535D01*
X66419465Y-116655120D01*
X66648273Y-116808005D01*
X66902510Y-116913314D01*
X67172408Y-116967000D01*
X67447592Y-116967000D01*
X67717490Y-116913314D01*
X67971727Y-116808005D01*
X68200535Y-116655120D01*
X68395120Y-116460535D01*
X68548005Y-116231727D01*
X68580000Y-116154485D01*
X68611995Y-116231727D01*
X68764880Y-116460535D01*
X68959465Y-116655120D01*
X69188273Y-116808005D01*
X69442510Y-116913314D01*
X69712408Y-116967000D01*
X69918199Y-116967000D01*
X69338998Y-117546201D01*
X69310000Y-117569999D01*
X69286202Y-117598997D01*
X69286201Y-117598998D01*
X69215026Y-117685724D01*
X69144454Y-117817754D01*
X69100998Y-117961015D01*
X69086324Y-118110000D01*
X69090001Y-118147332D01*
X69090000Y-122017659D01*
X68959465Y-122104880D01*
X68764880Y-122299465D01*
X68611995Y-122528273D01*
X68582308Y-122599943D01*
X68577636Y-122586977D01*
X68515656Y-122471020D01*
X68275565Y-122404040D01*
X67489605Y-123190000D01*
X68275565Y-123975960D01*
X68515656Y-123908980D01*
X68579485Y-123773240D01*
X68611995Y-123851727D01*
X68764880Y-124080535D01*
X68959465Y-124275120D01*
X69188273Y-124428005D01*
X69442510Y-124533314D01*
X69712408Y-124587000D01*
X69987592Y-124587000D01*
X70257490Y-124533314D01*
X70511727Y-124428005D01*
X70740535Y-124275120D01*
X70935120Y-124080535D01*
X71088005Y-123851727D01*
X71120000Y-123774485D01*
X71151995Y-123851727D01*
X71304880Y-124080535D01*
X71499465Y-124275120D01*
X71728273Y-124428005D01*
X71982510Y-124533314D01*
X72252408Y-124587000D01*
X72527592Y-124587000D01*
X72797490Y-124533314D01*
X73051727Y-124428005D01*
X73280535Y-124275120D01*
X73475120Y-124080535D01*
X73628005Y-123851727D01*
X73660000Y-123774485D01*
X73691995Y-123851727D01*
X73844880Y-124080535D01*
X74039465Y-124275120D01*
X74268273Y-124428005D01*
X74522510Y-124533314D01*
X74792408Y-124587000D01*
X75067592Y-124587000D01*
X75337490Y-124533314D01*
X75591727Y-124428005D01*
X75820535Y-124275120D01*
X76015120Y-124080535D01*
X76168005Y-123851727D01*
X76273314Y-123597490D01*
X76327000Y-123327592D01*
X76327000Y-123052408D01*
X76273314Y-122782510D01*
X76168005Y-122528273D01*
X76015120Y-122299465D01*
X75820535Y-122104880D01*
X75591727Y-121951995D01*
X75337490Y-121846686D01*
X75067592Y-121793000D01*
X74792408Y-121793000D01*
X74522510Y-121846686D01*
X74268273Y-121951995D01*
X74039465Y-122104880D01*
X73844880Y-122299465D01*
X73691995Y-122528273D01*
X73660000Y-122605515D01*
X73628005Y-122528273D01*
X73475120Y-122299465D01*
X73376413Y-122200758D01*
X79251004Y-116326168D01*
X79280001Y-116302371D01*
X79337977Y-116231727D01*
X79374974Y-116186647D01*
X79445546Y-116054617D01*
X79445546Y-116054616D01*
X79489003Y-115911356D01*
X79500000Y-115799703D01*
X79500000Y-115799694D01*
X79503676Y-115762371D01*
X79500000Y-115725048D01*
X79500000Y-105358043D01*
X79654759Y-105254637D01*
X79854637Y-105054759D01*
X80011680Y-104819727D01*
X80119853Y-104558574D01*
X80175000Y-104281335D01*
X80175000Y-103998665D01*
X80147152Y-103858665D01*
X84565000Y-103858665D01*
X84565000Y-104141335D01*
X84620147Y-104418574D01*
X84728320Y-104679727D01*
X84885363Y-104914759D01*
X85085241Y-105114637D01*
X85320273Y-105271680D01*
X85581426Y-105379853D01*
X85858665Y-105435000D01*
X86141335Y-105435000D01*
X86418574Y-105379853D01*
X86679727Y-105271680D01*
X86914759Y-105114637D01*
X87114637Y-104914759D01*
X87271680Y-104679727D01*
X87379853Y-104418574D01*
X87435000Y-104141335D01*
X87435000Y-103858665D01*
X87379853Y-103581426D01*
X87271680Y-103320273D01*
X87215816Y-103236665D01*
X91783000Y-103236665D01*
X91783000Y-103519335D01*
X91838147Y-103796574D01*
X91946320Y-104057727D01*
X92103363Y-104292759D01*
X92303241Y-104492637D01*
X92538273Y-104649680D01*
X92799426Y-104757853D01*
X93076665Y-104813000D01*
X93359335Y-104813000D01*
X93636574Y-104757853D01*
X93897727Y-104649680D01*
X94132759Y-104492637D01*
X94332637Y-104292759D01*
X94489680Y-104057727D01*
X94597853Y-103796574D01*
X94653000Y-103519335D01*
X94653000Y-103236665D01*
X94597853Y-102959426D01*
X94489680Y-102698273D01*
X94332637Y-102463241D01*
X94132759Y-102263363D01*
X93897727Y-102106320D01*
X93636574Y-101998147D01*
X93359335Y-101943000D01*
X93076665Y-101943000D01*
X92799426Y-101998147D01*
X92538273Y-102106320D01*
X92303241Y-102263363D01*
X92103363Y-102463241D01*
X91946320Y-102698273D01*
X91838147Y-102959426D01*
X91783000Y-103236665D01*
X87215816Y-103236665D01*
X87114637Y-103085241D01*
X86914759Y-102885363D01*
X86679727Y-102728320D01*
X86418574Y-102620147D01*
X86141335Y-102565000D01*
X85858665Y-102565000D01*
X85581426Y-102620147D01*
X85320273Y-102728320D01*
X85085241Y-102885363D01*
X84885363Y-103085241D01*
X84728320Y-103320273D01*
X84620147Y-103581426D01*
X84565000Y-103858665D01*
X80147152Y-103858665D01*
X80119853Y-103721426D01*
X80011680Y-103460273D01*
X79854637Y-103225241D01*
X79654759Y-103025363D01*
X79419727Y-102868320D01*
X79158574Y-102760147D01*
X78881335Y-102705000D01*
X78598665Y-102705000D01*
X78321426Y-102760147D01*
X78060273Y-102868320D01*
X77825241Y-103025363D01*
X77625363Y-103225241D01*
X77468320Y-103460273D01*
X77360147Y-103721426D01*
X77305000Y-103998665D01*
X77305000Y-104281335D01*
X77360147Y-104558574D01*
X77468320Y-104819727D01*
X77625363Y-105054759D01*
X77825241Y-105254637D01*
X77980001Y-105358044D01*
X77980000Y-115447568D01*
X71878998Y-121548571D01*
X71850000Y-121572369D01*
X71826202Y-121601367D01*
X71826201Y-121601368D01*
X71755026Y-121688094D01*
X71684454Y-121820124D01*
X71640998Y-121963385D01*
X71636051Y-122013616D01*
X71499465Y-122104880D01*
X71304880Y-122299465D01*
X71151995Y-122528273D01*
X71120000Y-122605515D01*
X71088005Y-122528273D01*
X70935120Y-122299465D01*
X70740535Y-122104880D01*
X70610000Y-122017659D01*
X70610000Y-118424801D01*
X72098430Y-116936372D01*
X72252408Y-116967000D01*
X72527592Y-116967000D01*
X72797490Y-116913314D01*
X73051727Y-116808005D01*
X73280535Y-116655120D01*
X73475120Y-116460535D01*
X73628005Y-116231727D01*
X73660000Y-116154485D01*
X73691995Y-116231727D01*
X73844880Y-116460535D01*
X74039465Y-116655120D01*
X74268273Y-116808005D01*
X74522510Y-116913314D01*
X74792408Y-116967000D01*
X75067592Y-116967000D01*
X75337490Y-116913314D01*
X75591727Y-116808005D01*
X75820535Y-116655120D01*
X76015120Y-116460535D01*
X76168005Y-116231727D01*
X76273314Y-115977490D01*
X76327000Y-115707592D01*
X76327000Y-115432408D01*
X76273314Y-115162510D01*
X76168005Y-114908273D01*
X76015120Y-114679465D01*
X75820535Y-114484880D01*
X75591727Y-114331995D01*
X75337490Y-114226686D01*
X75067592Y-114173000D01*
X74792408Y-114173000D01*
X74522510Y-114226686D01*
X74268273Y-114331995D01*
X74039465Y-114484880D01*
X73844880Y-114679465D01*
X73691995Y-114908273D01*
X73660000Y-114985515D01*
X73628005Y-114908273D01*
X73475120Y-114679465D01*
X73280535Y-114484880D01*
X73051727Y-114331995D01*
X72797490Y-114226686D01*
X72527592Y-114173000D01*
X72252408Y-114173000D01*
X72098430Y-114203628D01*
X71212999Y-113318198D01*
X71212999Y-105257897D01*
X71278961Y-105277904D01*
X71501000Y-105155915D01*
X71501000Y-104013000D01*
X71755000Y-104013000D01*
X71755000Y-105155915D01*
X71977039Y-105277904D01*
X72111087Y-105237246D01*
X72365420Y-105117037D01*
X72591414Y-104949519D01*
X72780385Y-104741131D01*
X72925070Y-104499881D01*
X73019909Y-104235040D01*
X72898624Y-104013000D01*
X71755000Y-104013000D01*
X71501000Y-104013000D01*
X71481000Y-104013000D01*
X71481000Y-103759000D01*
X71501000Y-103759000D01*
X71501000Y-102616085D01*
X71755000Y-102616085D01*
X71755000Y-103759000D01*
X72898624Y-103759000D01*
X73019909Y-103536960D01*
X72925070Y-103272119D01*
X72780385Y-103030869D01*
X72591414Y-102822481D01*
X72365420Y-102654963D01*
X72111087Y-102534754D01*
X71977039Y-102494096D01*
X71755000Y-102616085D01*
X71501000Y-102616085D01*
X71278961Y-102494096D01*
X71144913Y-102534754D01*
X70890580Y-102654963D01*
X70720481Y-102781049D01*
X65248414Y-97308982D01*
X65376637Y-97180759D01*
X65533680Y-96945727D01*
X65641853Y-96684574D01*
X65697000Y-96407335D01*
X65697000Y-96124665D01*
X70193000Y-96124665D01*
X70193000Y-96407335D01*
X70248147Y-96684574D01*
X70356320Y-96945727D01*
X70513363Y-97180759D01*
X70713241Y-97380637D01*
X70948273Y-97537680D01*
X71209426Y-97645853D01*
X71486665Y-97701000D01*
X71769335Y-97701000D01*
X72046574Y-97645853D01*
X72307727Y-97537680D01*
X72542759Y-97380637D01*
X72742637Y-97180759D01*
X72899680Y-96945727D01*
X73007853Y-96684574D01*
X73063000Y-96407335D01*
X73063000Y-96378665D01*
X77305000Y-96378665D01*
X77305000Y-96661335D01*
X77360147Y-96938574D01*
X77468320Y-97199727D01*
X77625363Y-97434759D01*
X77825241Y-97634637D01*
X78060273Y-97791680D01*
X78321426Y-97899853D01*
X78598665Y-97955000D01*
X78881335Y-97955000D01*
X79158574Y-97899853D01*
X79419727Y-97791680D01*
X79654759Y-97634637D01*
X79854637Y-97434759D01*
X80011680Y-97199727D01*
X80119853Y-96938574D01*
X80175000Y-96661335D01*
X80175000Y-96378665D01*
X80147152Y-96238665D01*
X84565000Y-96238665D01*
X84565000Y-96521335D01*
X84620147Y-96798574D01*
X84728320Y-97059727D01*
X84885363Y-97294759D01*
X85085241Y-97494637D01*
X85320273Y-97651680D01*
X85581426Y-97759853D01*
X85858665Y-97815000D01*
X86141335Y-97815000D01*
X86418574Y-97759853D01*
X86679727Y-97651680D01*
X86914759Y-97494637D01*
X87114637Y-97294759D01*
X87271680Y-97059727D01*
X87379853Y-96798574D01*
X87435000Y-96521335D01*
X87435000Y-96238665D01*
X87379853Y-95961426D01*
X87271680Y-95700273D01*
X87215816Y-95616665D01*
X91783000Y-95616665D01*
X91783000Y-95899335D01*
X91838147Y-96176574D01*
X91946320Y-96437727D01*
X92103363Y-96672759D01*
X92303241Y-96872637D01*
X92538273Y-97029680D01*
X92799426Y-97137853D01*
X93076665Y-97193000D01*
X93359335Y-97193000D01*
X93636574Y-97137853D01*
X93897727Y-97029680D01*
X94132759Y-96872637D01*
X94332637Y-96672759D01*
X94489680Y-96437727D01*
X94597853Y-96176574D01*
X94653000Y-95899335D01*
X94653000Y-95616665D01*
X94597853Y-95339426D01*
X94489680Y-95078273D01*
X94332637Y-94843241D01*
X94132759Y-94643363D01*
X93897727Y-94486320D01*
X93636574Y-94378147D01*
X93359335Y-94323000D01*
X93076665Y-94323000D01*
X92799426Y-94378147D01*
X92538273Y-94486320D01*
X92303241Y-94643363D01*
X92103363Y-94843241D01*
X91946320Y-95078273D01*
X91838147Y-95339426D01*
X91783000Y-95616665D01*
X87215816Y-95616665D01*
X87114637Y-95465241D01*
X86914759Y-95265363D01*
X86679727Y-95108320D01*
X86418574Y-95000147D01*
X86141335Y-94945000D01*
X85858665Y-94945000D01*
X85581426Y-95000147D01*
X85320273Y-95108320D01*
X85085241Y-95265363D01*
X84885363Y-95465241D01*
X84728320Y-95700273D01*
X84620147Y-95961426D01*
X84565000Y-96238665D01*
X80147152Y-96238665D01*
X80119853Y-96101426D01*
X80011680Y-95840273D01*
X79854637Y-95605241D01*
X79654759Y-95405363D01*
X79419727Y-95248320D01*
X79158574Y-95140147D01*
X78881335Y-95085000D01*
X78598665Y-95085000D01*
X78321426Y-95140147D01*
X78060273Y-95248320D01*
X77825241Y-95405363D01*
X77625363Y-95605241D01*
X77468320Y-95840273D01*
X77360147Y-96101426D01*
X77305000Y-96378665D01*
X73063000Y-96378665D01*
X73063000Y-96124665D01*
X73007853Y-95847426D01*
X72899680Y-95586273D01*
X72742637Y-95351241D01*
X72542759Y-95151363D01*
X72307727Y-94994320D01*
X72046574Y-94886147D01*
X71769335Y-94831000D01*
X71486665Y-94831000D01*
X71209426Y-94886147D01*
X70948273Y-94994320D01*
X70713241Y-95151363D01*
X70513363Y-95351241D01*
X70356320Y-95586273D01*
X70248147Y-95847426D01*
X70193000Y-96124665D01*
X65697000Y-96124665D01*
X65641853Y-95847426D01*
X65533680Y-95586273D01*
X65376637Y-95351241D01*
X65176759Y-95151363D01*
X64941727Y-94994320D01*
X64680574Y-94886147D01*
X64403335Y-94831000D01*
X64120665Y-94831000D01*
X63843426Y-94886147D01*
X63582273Y-94994320D01*
X63347241Y-95151363D01*
X63147363Y-95351241D01*
X62990320Y-95586273D01*
X62882147Y-95847426D01*
X62827000Y-96124665D01*
X59755000Y-96124665D01*
X59755000Y-95880514D01*
X59703696Y-95622595D01*
X59603061Y-95379641D01*
X59456962Y-95160987D01*
X59271013Y-94975038D01*
X59052359Y-94828939D01*
X58809405Y-94728304D01*
X58551486Y-94677000D01*
X58288514Y-94677000D01*
X58030595Y-94728304D01*
X57787641Y-94828939D01*
X57568987Y-94975038D01*
X57383038Y-95160987D01*
X57236939Y-95379641D01*
X57136304Y-95622595D01*
X57085000Y-95880514D01*
X38760000Y-95880514D01*
X38760000Y-91044665D01*
X72733000Y-91044665D01*
X72733000Y-91327335D01*
X72788147Y-91604574D01*
X72896320Y-91865727D01*
X73053363Y-92100759D01*
X73253241Y-92300637D01*
X73488273Y-92457680D01*
X73749426Y-92565853D01*
X74026665Y-92621000D01*
X74309335Y-92621000D01*
X74586574Y-92565853D01*
X74847727Y-92457680D01*
X75082759Y-92300637D01*
X75282637Y-92100759D01*
X75439680Y-91865727D01*
X75547853Y-91604574D01*
X75603000Y-91327335D01*
X75603000Y-91044665D01*
X75547853Y-90767426D01*
X75439680Y-90506273D01*
X75282637Y-90271241D01*
X75082759Y-90071363D01*
X74847727Y-89914320D01*
X74586574Y-89806147D01*
X74309335Y-89751000D01*
X74026665Y-89751000D01*
X73749426Y-89806147D01*
X73488273Y-89914320D01*
X73253241Y-90071363D01*
X73053363Y-90271241D01*
X72896320Y-90506273D01*
X72788147Y-90767426D01*
X72733000Y-91044665D01*
X38760000Y-91044665D01*
X38760000Y-89638702D01*
X62980903Y-89638702D01*
X63052486Y-89882671D01*
X63307996Y-90003571D01*
X63582184Y-90072300D01*
X63864512Y-90086217D01*
X64144130Y-90044787D01*
X64410292Y-89949603D01*
X64535514Y-89882671D01*
X64607097Y-89638702D01*
X63794000Y-88825605D01*
X62980903Y-89638702D01*
X38760000Y-89638702D01*
X38760000Y-88716512D01*
X62353783Y-88716512D01*
X62395213Y-88996130D01*
X62490397Y-89262292D01*
X62557329Y-89387514D01*
X62801298Y-89459097D01*
X63614395Y-88646000D01*
X63973605Y-88646000D01*
X64786702Y-89459097D01*
X64855928Y-89438785D01*
X64855928Y-89446000D01*
X64868188Y-89570482D01*
X64904498Y-89690180D01*
X64963463Y-89800494D01*
X65042815Y-89897185D01*
X65139506Y-89976537D01*
X65249820Y-90035502D01*
X65369518Y-90071812D01*
X65494000Y-90084072D01*
X67094000Y-90084072D01*
X67218482Y-90071812D01*
X67338180Y-90035502D01*
X67448494Y-89976537D01*
X67545185Y-89897185D01*
X67624537Y-89800494D01*
X67683502Y-89690180D01*
X67719812Y-89570482D01*
X67732072Y-89446000D01*
X67732072Y-87846000D01*
X67719812Y-87721518D01*
X67683502Y-87601820D01*
X67624537Y-87491506D01*
X67545185Y-87394815D01*
X67448494Y-87315463D01*
X67338180Y-87256498D01*
X67218482Y-87220188D01*
X67094000Y-87207928D01*
X65494000Y-87207928D01*
X65369518Y-87220188D01*
X65249820Y-87256498D01*
X65139506Y-87315463D01*
X65042815Y-87394815D01*
X64963463Y-87491506D01*
X64904498Y-87601820D01*
X64868188Y-87721518D01*
X64855928Y-87846000D01*
X64855928Y-87853215D01*
X64786702Y-87832903D01*
X63973605Y-88646000D01*
X63614395Y-88646000D01*
X62801298Y-87832903D01*
X62557329Y-87904486D01*
X62436429Y-88159996D01*
X62367700Y-88434184D01*
X62353783Y-88716512D01*
X38760000Y-88716512D01*
X38760000Y-87653298D01*
X62980903Y-87653298D01*
X63794000Y-88466395D01*
X64607097Y-87653298D01*
X64535514Y-87409329D01*
X64280004Y-87288429D01*
X64005816Y-87219700D01*
X63723488Y-87205783D01*
X63443870Y-87247213D01*
X63177708Y-87342397D01*
X63052486Y-87409329D01*
X62980903Y-87653298D01*
X38760000Y-87653298D01*
X38760000Y-80256000D01*
X61857928Y-80256000D01*
X61870188Y-80380482D01*
X61906498Y-80500180D01*
X61965463Y-80610494D01*
X62044815Y-80707185D01*
X62141506Y-80786537D01*
X62251820Y-80845502D01*
X62371518Y-80881812D01*
X62496000Y-80894072D01*
X62960250Y-80891000D01*
X63119000Y-80732250D01*
X63119000Y-79883000D01*
X63373000Y-79883000D01*
X63373000Y-80732250D01*
X63531750Y-80891000D01*
X63996000Y-80894072D01*
X64120482Y-80881812D01*
X64240180Y-80845502D01*
X64350494Y-80786537D01*
X64447185Y-80707185D01*
X64526537Y-80610494D01*
X64585502Y-80500180D01*
X64621812Y-80380482D01*
X64634072Y-80256000D01*
X64631000Y-80041750D01*
X64472250Y-79883000D01*
X63373000Y-79883000D01*
X63119000Y-79883000D01*
X62019750Y-79883000D01*
X61861000Y-80041750D01*
X61857928Y-80256000D01*
X38760000Y-80256000D01*
X38760000Y-77216000D01*
X61855509Y-77216000D01*
X61877423Y-77438499D01*
X61942324Y-77652447D01*
X62047716Y-77849623D01*
X62048846Y-77851000D01*
X62047716Y-77852377D01*
X61942324Y-78049553D01*
X61877423Y-78263501D01*
X61855509Y-78486000D01*
X61877423Y-78708499D01*
X61942324Y-78922447D01*
X61948297Y-78933621D01*
X61906498Y-79011820D01*
X61870188Y-79131518D01*
X61857928Y-79256000D01*
X61861000Y-79470250D01*
X62019750Y-79629000D01*
X63119000Y-79629000D01*
X63119000Y-79621000D01*
X63373000Y-79621000D01*
X63373000Y-79629000D01*
X64472250Y-79629000D01*
X64631000Y-79470250D01*
X64634072Y-79256000D01*
X64633087Y-79246000D01*
X68773199Y-79246000D01*
X72769312Y-83242114D01*
X72733000Y-83424665D01*
X72733000Y-83707335D01*
X72788147Y-83984574D01*
X72896320Y-84245727D01*
X73053363Y-84480759D01*
X73253241Y-84680637D01*
X73488273Y-84837680D01*
X73749426Y-84945853D01*
X74026665Y-85001000D01*
X74309335Y-85001000D01*
X74586574Y-84945853D01*
X74847727Y-84837680D01*
X75082759Y-84680637D01*
X75282637Y-84480759D01*
X75439680Y-84245727D01*
X75547853Y-83984574D01*
X75603000Y-83707335D01*
X75603000Y-83424665D01*
X75547853Y-83147426D01*
X75439680Y-82886273D01*
X75282637Y-82651241D01*
X75082759Y-82451363D01*
X74847727Y-82294320D01*
X74586574Y-82186147D01*
X74309335Y-82131000D01*
X74026665Y-82131000D01*
X73844114Y-82167312D01*
X69651804Y-77975003D01*
X69628001Y-77945999D01*
X69512276Y-77851026D01*
X69380247Y-77780454D01*
X69236986Y-77736997D01*
X69125333Y-77726000D01*
X69125322Y-77726000D01*
X69088000Y-77722324D01*
X69050678Y-77726000D01*
X64510361Y-77726000D01*
X64549676Y-77652447D01*
X64569832Y-77586000D01*
X85837928Y-77586000D01*
X85837928Y-79386000D01*
X85850188Y-79510482D01*
X85886498Y-79630180D01*
X85945463Y-79740494D01*
X86024815Y-79837185D01*
X86121506Y-79916537D01*
X86231820Y-79975502D01*
X86351518Y-80011812D01*
X86476000Y-80024072D01*
X88276000Y-80024072D01*
X88400482Y-80011812D01*
X88520180Y-79975502D01*
X88630494Y-79916537D01*
X88727185Y-79837185D01*
X88806537Y-79740494D01*
X88865502Y-79630180D01*
X88871056Y-79611873D01*
X88937495Y-79678312D01*
X89188905Y-79846299D01*
X89468257Y-79962011D01*
X89764816Y-80021000D01*
X90067184Y-80021000D01*
X90363743Y-79962011D01*
X90643095Y-79846299D01*
X90894505Y-79678312D01*
X91108312Y-79464505D01*
X91276299Y-79213095D01*
X91392011Y-78933743D01*
X91451000Y-78637184D01*
X91451000Y-78334816D01*
X91403099Y-78094000D01*
X95235928Y-78094000D01*
X95235928Y-79894000D01*
X95248188Y-80018482D01*
X95284498Y-80138180D01*
X95343463Y-80248494D01*
X95422815Y-80345185D01*
X95519506Y-80424537D01*
X95629820Y-80483502D01*
X95749518Y-80519812D01*
X95874000Y-80532072D01*
X97674000Y-80532072D01*
X97798482Y-80519812D01*
X97918180Y-80483502D01*
X98028494Y-80424537D01*
X98125185Y-80345185D01*
X98204537Y-80248494D01*
X98263502Y-80138180D01*
X98269056Y-80119873D01*
X98335495Y-80186312D01*
X98586905Y-80354299D01*
X98866257Y-80470011D01*
X99162816Y-80529000D01*
X99465184Y-80529000D01*
X99761743Y-80470011D01*
X100041095Y-80354299D01*
X100292505Y-80186312D01*
X100506312Y-79972505D01*
X100674299Y-79721095D01*
X100790011Y-79441743D01*
X100849000Y-79145184D01*
X100849000Y-78842816D01*
X100790011Y-78546257D01*
X100674299Y-78266905D01*
X100506312Y-78015495D01*
X100292505Y-77801688D01*
X100041095Y-77633701D01*
X99761743Y-77517989D01*
X99465184Y-77459000D01*
X99162816Y-77459000D01*
X98866257Y-77517989D01*
X98586905Y-77633701D01*
X98335495Y-77801688D01*
X98269056Y-77868127D01*
X98263502Y-77849820D01*
X98204537Y-77739506D01*
X98125185Y-77642815D01*
X98028494Y-77563463D01*
X97918180Y-77504498D01*
X97798482Y-77468188D01*
X97674000Y-77455928D01*
X95874000Y-77455928D01*
X95749518Y-77468188D01*
X95629820Y-77504498D01*
X95519506Y-77563463D01*
X95422815Y-77642815D01*
X95343463Y-77739506D01*
X95284498Y-77849820D01*
X95248188Y-77969518D01*
X95235928Y-78094000D01*
X91403099Y-78094000D01*
X91392011Y-78038257D01*
X91276299Y-77758905D01*
X91108312Y-77507495D01*
X90894505Y-77293688D01*
X90643095Y-77125701D01*
X90363743Y-77009989D01*
X90067184Y-76951000D01*
X89764816Y-76951000D01*
X89468257Y-77009989D01*
X89188905Y-77125701D01*
X88937495Y-77293688D01*
X88871056Y-77360127D01*
X88865502Y-77341820D01*
X88806537Y-77231506D01*
X88727185Y-77134815D01*
X88630494Y-77055463D01*
X88520180Y-76996498D01*
X88400482Y-76960188D01*
X88276000Y-76947928D01*
X86476000Y-76947928D01*
X86351518Y-76960188D01*
X86231820Y-76996498D01*
X86121506Y-77055463D01*
X86024815Y-77134815D01*
X85945463Y-77231506D01*
X85886498Y-77341820D01*
X85850188Y-77461518D01*
X85837928Y-77586000D01*
X64569832Y-77586000D01*
X64614577Y-77438499D01*
X64636491Y-77216000D01*
X64614577Y-76993501D01*
X64549676Y-76779553D01*
X64444284Y-76582377D01*
X64302449Y-76409551D01*
X64129623Y-76267716D01*
X63932447Y-76162324D01*
X63718499Y-76097423D01*
X63551752Y-76081000D01*
X62940248Y-76081000D01*
X62773501Y-76097423D01*
X62559553Y-76162324D01*
X62362377Y-76267716D01*
X62189551Y-76409551D01*
X62047716Y-76582377D01*
X61942324Y-76779553D01*
X61877423Y-76993501D01*
X61855509Y-77216000D01*
X38760000Y-77216000D01*
X38760000Y-64160000D01*
X126340000Y-64160000D01*
X126340001Y-139040000D01*
M02*
