G04 #@! TF.GenerationSoftware,KiCad,Pcbnew,(5.1.5)-3*
G04 #@! TF.CreationDate,2019-12-18T19:33:25+05:30*
G04 #@! TF.ProjectId,555_Badge,3535355f-4261-4646-9765-2e6b69636164,v01*
G04 #@! TF.SameCoordinates,Original*
G04 #@! TF.FileFunction,Copper,L1,Top*
G04 #@! TF.FilePolarity,Positive*
%FSLAX46Y46*%
G04 Gerber Fmt 4.6, Leading zero omitted, Abs format (unit mm)*
G04 Created by KiCad (PCBNEW (5.1.5)-3) date 2019-12-18 19:33:25*
%MOMM*%
%LPD*%
G04 APERTURE LIST*
%ADD10R,2.170000X2.170000*%
%ADD11C,2.500000*%
%ADD12R,1.600000X1.600000*%
%ADD13C,1.600000*%
%ADD14R,1.800000X1.800000*%
%ADD15C,1.800000*%
%ADD16R,1.500000X1.000000*%
%ADD17O,1.500000X1.000000*%
%ADD18C,1.400000*%
%ADD19O,1.400000X1.400000*%
%ADD20O,1.600000X1.600000*%
%ADD21R,1.900000X1.900000*%
%ADD22C,1.900000*%
%ADD23C,1.524000*%
%ADD24C,0.250000*%
%ADD25C,0.762000*%
G04 APERTURE END LIST*
D10*
X43180000Y-125730000D03*
D11*
X63180000Y-125730000D03*
D12*
X69628000Y-128778000D03*
D13*
X71628000Y-128778000D03*
X63794000Y-88646000D03*
D12*
X66294000Y-88646000D03*
D14*
X96774000Y-78994000D03*
D15*
X99314000Y-78994000D03*
D14*
X87376000Y-78486000D03*
D15*
X89916000Y-78486000D03*
D16*
X63246000Y-79756000D03*
D17*
X63246000Y-77216000D03*
X63246000Y-78486000D03*
D18*
X58420000Y-103632000D03*
D19*
X58420000Y-96012000D03*
D13*
X64262000Y-103886000D03*
D20*
X64262000Y-96266000D03*
X71628000Y-103886000D03*
D13*
X71628000Y-96266000D03*
X78740000Y-96520000D03*
D20*
X78740000Y-104140000D03*
D13*
X74168000Y-83566000D03*
D20*
X74168000Y-91186000D03*
X93218000Y-95758000D03*
D13*
X93218000Y-103378000D03*
D20*
X86000000Y-96380000D03*
D13*
X86000000Y-104000000D03*
D21*
X75906000Y-135890000D03*
D22*
X73406000Y-135890000D03*
X70906000Y-135890000D03*
D23*
X67310000Y-123190000D03*
X69850000Y-123190000D03*
X72390000Y-123190000D03*
X74930000Y-123190000D03*
X74930000Y-115570000D03*
X72390000Y-115570000D03*
X69850000Y-115570000D03*
X67310000Y-115570000D03*
D24*
X57344999Y-113224999D02*
X66548001Y-122428001D01*
X57344999Y-103115999D02*
X57344999Y-113224999D01*
X57903999Y-102556999D02*
X57344999Y-103115999D01*
X68712999Y-112333997D02*
X58936001Y-102556999D01*
X68712999Y-110076001D02*
X68712999Y-112333997D01*
X58936001Y-102556999D02*
X57903999Y-102556999D01*
X57344999Y-98708001D02*
X68712999Y-110076001D01*
X57344999Y-95495999D02*
X57344999Y-98708001D01*
X57903999Y-94936999D02*
X57344999Y-95495999D01*
X66548001Y-122428001D02*
X67310000Y-123190000D01*
X58936001Y-94936999D02*
X57903999Y-94936999D01*
X67885002Y-103886000D02*
X58936001Y-94936999D01*
X71628000Y-103886000D02*
X67885002Y-103886000D01*
X63794000Y-80304000D02*
X63246000Y-79756000D01*
X63794000Y-88646000D02*
X63794000Y-80304000D01*
X43180000Y-125730000D02*
X43180000Y-124395000D01*
D25*
X63180000Y-128164000D02*
X70906000Y-135890000D01*
X63180000Y-125730000D02*
X63180000Y-128164000D01*
D24*
X69628000Y-123412000D02*
X69850000Y-123190000D01*
X69628000Y-128778000D02*
X69628000Y-123412000D01*
X74168000Y-93726000D02*
X74168000Y-91186000D01*
X73368001Y-90386001D02*
X74168000Y-91186000D01*
X71628000Y-88646000D02*
X73368001Y-90386001D01*
X66294000Y-88646000D02*
X71628000Y-88646000D01*
X76167000Y-93947000D02*
X78740000Y-96520000D01*
X73947000Y-93947000D02*
X76167000Y-93947000D01*
X73947000Y-93947000D02*
X74168000Y-93726000D01*
X71628000Y-96266000D02*
X73947000Y-93947000D01*
X87376000Y-77336000D02*
X87376000Y-78486000D01*
X87256000Y-77216000D02*
X87376000Y-77336000D01*
X63246000Y-77216000D02*
X87256000Y-77216000D01*
X93840999Y-77210999D02*
X86789001Y-77210999D01*
X96774000Y-78994000D02*
X95624000Y-78994000D01*
X95624000Y-78994000D02*
X93840999Y-77210999D01*
X99314000Y-89662000D02*
X93218000Y-95758000D01*
X99314000Y-78994000D02*
X99314000Y-89662000D01*
X89916000Y-92464000D02*
X86000000Y-96380000D01*
X89916000Y-78486000D02*
X89916000Y-92464000D01*
D25*
X73406000Y-134546498D02*
X74000000Y-133952498D01*
X73406000Y-135890000D02*
X73406000Y-134546498D01*
X74168001Y-123951999D02*
X74930000Y-123190000D01*
X74000000Y-124120000D02*
X74168001Y-123951999D01*
X74000000Y-133952498D02*
X74000000Y-124120000D01*
X74930000Y-123190000D02*
X67310000Y-115570000D01*
X58420000Y-107757630D02*
X58420000Y-104621949D01*
X58420000Y-104621949D02*
X58420000Y-103632000D01*
X66232370Y-115570000D02*
X58420000Y-107757630D01*
X67310000Y-115570000D02*
X66232370Y-115570000D01*
X86000000Y-105131370D02*
X86000000Y-104000000D01*
X75598641Y-116963001D02*
X86000000Y-106561642D01*
X86000000Y-106561642D02*
X86000000Y-105131370D01*
X68703001Y-116963001D02*
X75598641Y-116963001D01*
X67310000Y-115570000D02*
X68703001Y-116963001D01*
X92596000Y-104000000D02*
X93218000Y-103378000D01*
X86000000Y-104000000D02*
X92596000Y-104000000D01*
D24*
X64262000Y-101854000D02*
X64262000Y-103886000D01*
X58420000Y-96012000D02*
X64262000Y-101854000D01*
X69850000Y-109474000D02*
X69850000Y-115570000D01*
X64262000Y-103886000D02*
X69850000Y-109474000D01*
M02*
