M48
; DRILL file {KiCad (5.1.5)-3} date 12/18/2019 7:33:56 PM
; FORMAT={-:-/ absolute / inch / decimal}
; #@! TF.CreationDate,2019-12-18T19:33:56+05:30
; #@! TF.GenerationSoftware,Kicad,Pcbnew,(5.1.5)-3
; #@! TF.FileFunction,Plated,1,2,PTH
FMAT,2
INCH
T1C0.0217
T2C0.0276
T3C0.0300
T4C0.0315
T5C0.0354
T6C0.0461
T7C0.0591
%
G90
G05
T1
X2.49Y-3.04
X2.49Y-3.09
X2.49Y-3.14
T2
X2.3Y-3.78
X2.3Y-4.08
T3
X2.65Y-4.55
X2.65Y-4.85
X2.75Y-4.55
X2.75Y-4.85
X2.85Y-4.55
X2.85Y-4.85
X2.95Y-4.55
X2.95Y-4.85
T4
X3.67Y-3.77
X3.67Y-4.07
X2.92Y-3.29
X2.92Y-3.59
X3.1Y-3.8
X3.1Y-4.1
X2.5116Y-3.49
X2.61Y-3.49
X2.53Y-3.79
X2.53Y-4.09
X3.3858Y-3.7945
X3.3858Y-4.0945
X2.7413Y-5.07
X2.82Y-5.07
X2.82Y-3.79
X2.82Y-4.09
T5
X2.7916Y-5.35
X2.89Y-5.35
X2.9884Y-5.35
X3.44Y-3.09
X3.54Y-3.09
X3.81Y-3.11
X3.91Y-3.11
T6
X1.7Y-4.95
T7
X2.4874Y-4.95
T0
M30
