G04 #@! TF.GenerationSoftware,KiCad,Pcbnew,(5.1.5)-3*
G04 #@! TF.CreationDate,2019-12-18T19:33:25+05:30*
G04 #@! TF.ProjectId,555_Badge,3535355f-4261-4646-9765-2e6b69636164,v01*
G04 #@! TF.SameCoordinates,Original*
G04 #@! TF.FileFunction,Legend,Bot*
G04 #@! TF.FilePolarity,Positive*
%FSLAX46Y46*%
G04 Gerber Fmt 4.6, Leading zero omitted, Abs format (unit mm)*
G04 Created by KiCad (PCBNEW (5.1.5)-3) date 2019-12-18 19:33:25*
%MOMM*%
%LPD*%
G04 APERTURE LIST*
%ADD10C,0.150000*%
G04 APERTURE END LIST*
D10*
X102380952Y-118452380D02*
X102857142Y-118452380D01*
X102904761Y-118928571D01*
X102857142Y-118880952D01*
X102761904Y-118833333D01*
X102523809Y-118833333D01*
X102428571Y-118880952D01*
X102380952Y-118928571D01*
X102333333Y-119023809D01*
X102333333Y-119261904D01*
X102380952Y-119357142D01*
X102428571Y-119404761D01*
X102523809Y-119452380D01*
X102761904Y-119452380D01*
X102857142Y-119404761D01*
X102904761Y-119357142D01*
X101428571Y-118452380D02*
X101904761Y-118452380D01*
X101952380Y-118928571D01*
X101904761Y-118880952D01*
X101809523Y-118833333D01*
X101571428Y-118833333D01*
X101476190Y-118880952D01*
X101428571Y-118928571D01*
X101380952Y-119023809D01*
X101380952Y-119261904D01*
X101428571Y-119357142D01*
X101476190Y-119404761D01*
X101571428Y-119452380D01*
X101809523Y-119452380D01*
X101904761Y-119404761D01*
X101952380Y-119357142D01*
X100476190Y-118452380D02*
X100952380Y-118452380D01*
X101000000Y-118928571D01*
X100952380Y-118880952D01*
X100857142Y-118833333D01*
X100619047Y-118833333D01*
X100523809Y-118880952D01*
X100476190Y-118928571D01*
X100428571Y-119023809D01*
X100428571Y-119261904D01*
X100476190Y-119357142D01*
X100523809Y-119404761D01*
X100619047Y-119452380D01*
X100857142Y-119452380D01*
X100952380Y-119404761D01*
X101000000Y-119357142D01*
X100238095Y-119547619D02*
X99476190Y-119547619D01*
X98904761Y-118928571D02*
X98761904Y-118976190D01*
X98714285Y-119023809D01*
X98666666Y-119119047D01*
X98666666Y-119261904D01*
X98714285Y-119357142D01*
X98761904Y-119404761D01*
X98857142Y-119452380D01*
X99238095Y-119452380D01*
X99238095Y-118452380D01*
X98904761Y-118452380D01*
X98809523Y-118500000D01*
X98761904Y-118547619D01*
X98714285Y-118642857D01*
X98714285Y-118738095D01*
X98761904Y-118833333D01*
X98809523Y-118880952D01*
X98904761Y-118928571D01*
X99238095Y-118928571D01*
X97809523Y-119452380D02*
X97809523Y-118928571D01*
X97857142Y-118833333D01*
X97952380Y-118785714D01*
X98142857Y-118785714D01*
X98238095Y-118833333D01*
X97809523Y-119404761D02*
X97904761Y-119452380D01*
X98142857Y-119452380D01*
X98238095Y-119404761D01*
X98285714Y-119309523D01*
X98285714Y-119214285D01*
X98238095Y-119119047D01*
X98142857Y-119071428D01*
X97904761Y-119071428D01*
X97809523Y-119023809D01*
X96904761Y-119452380D02*
X96904761Y-118452380D01*
X96904761Y-119404761D02*
X97000000Y-119452380D01*
X97190476Y-119452380D01*
X97285714Y-119404761D01*
X97333333Y-119357142D01*
X97380952Y-119261904D01*
X97380952Y-118976190D01*
X97333333Y-118880952D01*
X97285714Y-118833333D01*
X97190476Y-118785714D01*
X97000000Y-118785714D01*
X96904761Y-118833333D01*
X96000000Y-118785714D02*
X96000000Y-119595238D01*
X96047619Y-119690476D01*
X96095238Y-119738095D01*
X96190476Y-119785714D01*
X96333333Y-119785714D01*
X96428571Y-119738095D01*
X96000000Y-119404761D02*
X96095238Y-119452380D01*
X96285714Y-119452380D01*
X96380952Y-119404761D01*
X96428571Y-119357142D01*
X96476190Y-119261904D01*
X96476190Y-118976190D01*
X96428571Y-118880952D01*
X96380952Y-118833333D01*
X96285714Y-118785714D01*
X96095238Y-118785714D01*
X96000000Y-118833333D01*
X95142857Y-119404761D02*
X95238095Y-119452380D01*
X95428571Y-119452380D01*
X95523809Y-119404761D01*
X95571428Y-119309523D01*
X95571428Y-118928571D01*
X95523809Y-118833333D01*
X95428571Y-118785714D01*
X95238095Y-118785714D01*
X95142857Y-118833333D01*
X95095238Y-118928571D01*
X95095238Y-119023809D01*
X95571428Y-119119047D01*
M02*
