G04 #@! TF.GenerationSoftware,KiCad,Pcbnew,(5.1.5)-3*
G04 #@! TF.CreationDate,2019-12-18T19:33:25+05:30*
G04 #@! TF.ProjectId,555_Badge,3535355f-4261-4646-9765-2e6b69636164,v01*
G04 #@! TF.SameCoordinates,Original*
G04 #@! TF.FileFunction,Legend,Top*
G04 #@! TF.FilePolarity,Positive*
%FSLAX46Y46*%
G04 Gerber Fmt 4.6, Leading zero omitted, Abs format (unit mm)*
G04 Created by KiCad (PCBNEW (5.1.5)-3) date 2019-12-18 19:33:25*
%MOMM*%
%LPD*%
G04 APERTURE LIST*
%ADD10C,0.150000*%
%ADD11C,0.100000*%
%ADD12C,0.120000*%
%ADD13C,0.152400*%
%ADD14C,0.203200*%
%ADD15C,0.254000*%
G04 APERTURE END LIST*
D10*
X62619047Y-121071428D02*
X63380952Y-121071428D01*
X63000000Y-121452380D02*
X63000000Y-120690476D01*
D11*
X63957200Y-129641600D02*
X63957200Y-126796800D01*
X63957200Y-121818400D02*
X63957200Y-124663200D01*
X61214000Y-129641600D02*
X63957200Y-129641600D01*
X61214000Y-121818400D02*
X63957200Y-121818400D01*
X61874400Y-125730000D02*
G75*
G03X61874400Y-125730000I-11226800J0D01*
G01*
D12*
X73248000Y-128778000D02*
G75*
G03X73248000Y-128778000I-2620000J0D01*
G01*
X70628000Y-129818000D02*
X70628000Y-131358000D01*
X70628000Y-126198000D02*
X70628000Y-127738000D01*
X70668000Y-129818000D02*
X70668000Y-131358000D01*
X70668000Y-126198000D02*
X70668000Y-127738000D01*
X70708000Y-126199000D02*
X70708000Y-127738000D01*
X70708000Y-129818000D02*
X70708000Y-131357000D01*
X70748000Y-126200000D02*
X70748000Y-127738000D01*
X70748000Y-129818000D02*
X70748000Y-131356000D01*
X70788000Y-126202000D02*
X70788000Y-127738000D01*
X70788000Y-129818000D02*
X70788000Y-131354000D01*
X70828000Y-126205000D02*
X70828000Y-127738000D01*
X70828000Y-129818000D02*
X70828000Y-131351000D01*
X70868000Y-126209000D02*
X70868000Y-127738000D01*
X70868000Y-129818000D02*
X70868000Y-131347000D01*
X70908000Y-126213000D02*
X70908000Y-127738000D01*
X70908000Y-129818000D02*
X70908000Y-131343000D01*
X70948000Y-126217000D02*
X70948000Y-127738000D01*
X70948000Y-129818000D02*
X70948000Y-131339000D01*
X70988000Y-126222000D02*
X70988000Y-127738000D01*
X70988000Y-129818000D02*
X70988000Y-131334000D01*
X71028000Y-126228000D02*
X71028000Y-127738000D01*
X71028000Y-129818000D02*
X71028000Y-131328000D01*
X71068000Y-126235000D02*
X71068000Y-127738000D01*
X71068000Y-129818000D02*
X71068000Y-131321000D01*
X71108000Y-126242000D02*
X71108000Y-127738000D01*
X71108000Y-129818000D02*
X71108000Y-131314000D01*
X71148000Y-126250000D02*
X71148000Y-127738000D01*
X71148000Y-129818000D02*
X71148000Y-131306000D01*
X71188000Y-126258000D02*
X71188000Y-127738000D01*
X71188000Y-129818000D02*
X71188000Y-131298000D01*
X71228000Y-126267000D02*
X71228000Y-127738000D01*
X71228000Y-129818000D02*
X71228000Y-131289000D01*
X71268000Y-126277000D02*
X71268000Y-127738000D01*
X71268000Y-129818000D02*
X71268000Y-131279000D01*
X71308000Y-126287000D02*
X71308000Y-127738000D01*
X71308000Y-129818000D02*
X71308000Y-131269000D01*
X71349000Y-126298000D02*
X71349000Y-127738000D01*
X71349000Y-129818000D02*
X71349000Y-131258000D01*
X71389000Y-126310000D02*
X71389000Y-127738000D01*
X71389000Y-129818000D02*
X71389000Y-131246000D01*
X71429000Y-126323000D02*
X71429000Y-127738000D01*
X71429000Y-129818000D02*
X71429000Y-131233000D01*
X71469000Y-126336000D02*
X71469000Y-127738000D01*
X71469000Y-129818000D02*
X71469000Y-131220000D01*
X71509000Y-126350000D02*
X71509000Y-127738000D01*
X71509000Y-129818000D02*
X71509000Y-131206000D01*
X71549000Y-126364000D02*
X71549000Y-127738000D01*
X71549000Y-129818000D02*
X71549000Y-131192000D01*
X71589000Y-126380000D02*
X71589000Y-127738000D01*
X71589000Y-129818000D02*
X71589000Y-131176000D01*
X71629000Y-126396000D02*
X71629000Y-127738000D01*
X71629000Y-129818000D02*
X71629000Y-131160000D01*
X71669000Y-126413000D02*
X71669000Y-127738000D01*
X71669000Y-129818000D02*
X71669000Y-131143000D01*
X71709000Y-126430000D02*
X71709000Y-127738000D01*
X71709000Y-129818000D02*
X71709000Y-131126000D01*
X71749000Y-126449000D02*
X71749000Y-127738000D01*
X71749000Y-129818000D02*
X71749000Y-131107000D01*
X71789000Y-126468000D02*
X71789000Y-127738000D01*
X71789000Y-129818000D02*
X71789000Y-131088000D01*
X71829000Y-126488000D02*
X71829000Y-127738000D01*
X71829000Y-129818000D02*
X71829000Y-131068000D01*
X71869000Y-126510000D02*
X71869000Y-127738000D01*
X71869000Y-129818000D02*
X71869000Y-131046000D01*
X71909000Y-126531000D02*
X71909000Y-127738000D01*
X71909000Y-129818000D02*
X71909000Y-131025000D01*
X71949000Y-126554000D02*
X71949000Y-127738000D01*
X71949000Y-129818000D02*
X71949000Y-131002000D01*
X71989000Y-126578000D02*
X71989000Y-127738000D01*
X71989000Y-129818000D02*
X71989000Y-130978000D01*
X72029000Y-126603000D02*
X72029000Y-127738000D01*
X72029000Y-129818000D02*
X72029000Y-130953000D01*
X72069000Y-126629000D02*
X72069000Y-127738000D01*
X72069000Y-129818000D02*
X72069000Y-130927000D01*
X72109000Y-126656000D02*
X72109000Y-127738000D01*
X72109000Y-129818000D02*
X72109000Y-130900000D01*
X72149000Y-126683000D02*
X72149000Y-127738000D01*
X72149000Y-129818000D02*
X72149000Y-130873000D01*
X72189000Y-126713000D02*
X72189000Y-127738000D01*
X72189000Y-129818000D02*
X72189000Y-130843000D01*
X72229000Y-126743000D02*
X72229000Y-127738000D01*
X72229000Y-129818000D02*
X72229000Y-130813000D01*
X72269000Y-126774000D02*
X72269000Y-127738000D01*
X72269000Y-129818000D02*
X72269000Y-130782000D01*
X72309000Y-126807000D02*
X72309000Y-127738000D01*
X72309000Y-129818000D02*
X72309000Y-130749000D01*
X72349000Y-126841000D02*
X72349000Y-127738000D01*
X72349000Y-129818000D02*
X72349000Y-130715000D01*
X72389000Y-126877000D02*
X72389000Y-127738000D01*
X72389000Y-129818000D02*
X72389000Y-130679000D01*
X72429000Y-126914000D02*
X72429000Y-127738000D01*
X72429000Y-129818000D02*
X72429000Y-130642000D01*
X72469000Y-126952000D02*
X72469000Y-127738000D01*
X72469000Y-129818000D02*
X72469000Y-130604000D01*
X72509000Y-126993000D02*
X72509000Y-127738000D01*
X72509000Y-129818000D02*
X72509000Y-130563000D01*
X72549000Y-127035000D02*
X72549000Y-127738000D01*
X72549000Y-129818000D02*
X72549000Y-130521000D01*
X72589000Y-127079000D02*
X72589000Y-127738000D01*
X72589000Y-129818000D02*
X72589000Y-130477000D01*
X72629000Y-127125000D02*
X72629000Y-127738000D01*
X72629000Y-129818000D02*
X72629000Y-130431000D01*
X72669000Y-127173000D02*
X72669000Y-130383000D01*
X72709000Y-127224000D02*
X72709000Y-130332000D01*
X72749000Y-127278000D02*
X72749000Y-130278000D01*
X72789000Y-127335000D02*
X72789000Y-130221000D01*
X72829000Y-127395000D02*
X72829000Y-130161000D01*
X72869000Y-127459000D02*
X72869000Y-130097000D01*
X72909000Y-127527000D02*
X72909000Y-130029000D01*
X72949000Y-127600000D02*
X72949000Y-129956000D01*
X72989000Y-127680000D02*
X72989000Y-129876000D01*
X73029000Y-127767000D02*
X73029000Y-129789000D01*
X73069000Y-127863000D02*
X73069000Y-129693000D01*
X73109000Y-127973000D02*
X73109000Y-129583000D01*
X73149000Y-128101000D02*
X73149000Y-129455000D01*
X73189000Y-128260000D02*
X73189000Y-129296000D01*
X73229000Y-128494000D02*
X73229000Y-129062000D01*
X67823225Y-127303000D02*
X68323225Y-127303000D01*
X68073225Y-127053000D02*
X68073225Y-127553000D01*
X68229241Y-90800000D02*
X68229241Y-90170000D01*
X68544241Y-90485000D02*
X67914241Y-90485000D01*
X61803000Y-89048000D02*
X61803000Y-88244000D01*
X61843000Y-89279000D02*
X61843000Y-88013000D01*
X61883000Y-89448000D02*
X61883000Y-87844000D01*
X61923000Y-89586000D02*
X61923000Y-87706000D01*
X61963000Y-89705000D02*
X61963000Y-87587000D01*
X62003000Y-89811000D02*
X62003000Y-87481000D01*
X62043000Y-89908000D02*
X62043000Y-87384000D01*
X62083000Y-89996000D02*
X62083000Y-87296000D01*
X62123000Y-90078000D02*
X62123000Y-87214000D01*
X62163000Y-90155000D02*
X62163000Y-87137000D01*
X62203000Y-90227000D02*
X62203000Y-87065000D01*
X62243000Y-90296000D02*
X62243000Y-86996000D01*
X62283000Y-90360000D02*
X62283000Y-86932000D01*
X62323000Y-90422000D02*
X62323000Y-86870000D01*
X62363000Y-90480000D02*
X62363000Y-86812000D01*
X62403000Y-90536000D02*
X62403000Y-86756000D01*
X62443000Y-90590000D02*
X62443000Y-86702000D01*
X62483000Y-90641000D02*
X62483000Y-86651000D01*
X62523000Y-90690000D02*
X62523000Y-86602000D01*
X62563000Y-90738000D02*
X62563000Y-86554000D01*
X62603000Y-90783000D02*
X62603000Y-86509000D01*
X62643000Y-90828000D02*
X62643000Y-86464000D01*
X62683000Y-90870000D02*
X62683000Y-86422000D01*
X62723000Y-90911000D02*
X62723000Y-86381000D01*
X62763000Y-87606000D02*
X62763000Y-86341000D01*
X62763000Y-90951000D02*
X62763000Y-89686000D01*
X62803000Y-87606000D02*
X62803000Y-86303000D01*
X62803000Y-90989000D02*
X62803000Y-89686000D01*
X62843000Y-87606000D02*
X62843000Y-86266000D01*
X62843000Y-91026000D02*
X62843000Y-89686000D01*
X62883000Y-87606000D02*
X62883000Y-86230000D01*
X62883000Y-91062000D02*
X62883000Y-89686000D01*
X62923000Y-87606000D02*
X62923000Y-86196000D01*
X62923000Y-91096000D02*
X62923000Y-89686000D01*
X62963000Y-87606000D02*
X62963000Y-86162000D01*
X62963000Y-91130000D02*
X62963000Y-89686000D01*
X63003000Y-87606000D02*
X63003000Y-86130000D01*
X63003000Y-91162000D02*
X63003000Y-89686000D01*
X63043000Y-87606000D02*
X63043000Y-86098000D01*
X63043000Y-91194000D02*
X63043000Y-89686000D01*
X63083000Y-87606000D02*
X63083000Y-86068000D01*
X63083000Y-91224000D02*
X63083000Y-89686000D01*
X63123000Y-87606000D02*
X63123000Y-86039000D01*
X63123000Y-91253000D02*
X63123000Y-89686000D01*
X63163000Y-87606000D02*
X63163000Y-86010000D01*
X63163000Y-91282000D02*
X63163000Y-89686000D01*
X63203000Y-87606000D02*
X63203000Y-85982000D01*
X63203000Y-91310000D02*
X63203000Y-89686000D01*
X63243000Y-87606000D02*
X63243000Y-85956000D01*
X63243000Y-91336000D02*
X63243000Y-89686000D01*
X63283000Y-87606000D02*
X63283000Y-85930000D01*
X63283000Y-91362000D02*
X63283000Y-89686000D01*
X63323000Y-87606000D02*
X63323000Y-85904000D01*
X63323000Y-91388000D02*
X63323000Y-89686000D01*
X63363000Y-87606000D02*
X63363000Y-85880000D01*
X63363000Y-91412000D02*
X63363000Y-89686000D01*
X63403000Y-87606000D02*
X63403000Y-85856000D01*
X63403000Y-91436000D02*
X63403000Y-89686000D01*
X63443000Y-87606000D02*
X63443000Y-85834000D01*
X63443000Y-91458000D02*
X63443000Y-89686000D01*
X63483000Y-87606000D02*
X63483000Y-85812000D01*
X63483000Y-91480000D02*
X63483000Y-89686000D01*
X63523000Y-87606000D02*
X63523000Y-85790000D01*
X63523000Y-91502000D02*
X63523000Y-89686000D01*
X63563000Y-87606000D02*
X63563000Y-85770000D01*
X63563000Y-91522000D02*
X63563000Y-89686000D01*
X63603000Y-87606000D02*
X63603000Y-85750000D01*
X63603000Y-91542000D02*
X63603000Y-89686000D01*
X63643000Y-87606000D02*
X63643000Y-85730000D01*
X63643000Y-91562000D02*
X63643000Y-89686000D01*
X63683000Y-87606000D02*
X63683000Y-85712000D01*
X63683000Y-91580000D02*
X63683000Y-89686000D01*
X63723000Y-87606000D02*
X63723000Y-85694000D01*
X63723000Y-91598000D02*
X63723000Y-89686000D01*
X63763000Y-87606000D02*
X63763000Y-85676000D01*
X63763000Y-91616000D02*
X63763000Y-89686000D01*
X63803000Y-87606000D02*
X63803000Y-85660000D01*
X63803000Y-91632000D02*
X63803000Y-89686000D01*
X63843000Y-87606000D02*
X63843000Y-85644000D01*
X63843000Y-91648000D02*
X63843000Y-89686000D01*
X63883000Y-87606000D02*
X63883000Y-85628000D01*
X63883000Y-91664000D02*
X63883000Y-89686000D01*
X63923000Y-87606000D02*
X63923000Y-85613000D01*
X63923000Y-91679000D02*
X63923000Y-89686000D01*
X63963000Y-87606000D02*
X63963000Y-85599000D01*
X63963000Y-91693000D02*
X63963000Y-89686000D01*
X64003000Y-87606000D02*
X64003000Y-85585000D01*
X64003000Y-91707000D02*
X64003000Y-89686000D01*
X64043000Y-87606000D02*
X64043000Y-85572000D01*
X64043000Y-91720000D02*
X64043000Y-89686000D01*
X64083000Y-87606000D02*
X64083000Y-85560000D01*
X64083000Y-91732000D02*
X64083000Y-89686000D01*
X64123000Y-87606000D02*
X64123000Y-85548000D01*
X64123000Y-91744000D02*
X64123000Y-89686000D01*
X64163000Y-87606000D02*
X64163000Y-85536000D01*
X64163000Y-91756000D02*
X64163000Y-89686000D01*
X64203000Y-87606000D02*
X64203000Y-85525000D01*
X64203000Y-91767000D02*
X64203000Y-89686000D01*
X64243000Y-87606000D02*
X64243000Y-85515000D01*
X64243000Y-91777000D02*
X64243000Y-89686000D01*
X64283000Y-87606000D02*
X64283000Y-85505000D01*
X64283000Y-91787000D02*
X64283000Y-89686000D01*
X64323000Y-87606000D02*
X64323000Y-85496000D01*
X64323000Y-91796000D02*
X64323000Y-89686000D01*
X64364000Y-87606000D02*
X64364000Y-85487000D01*
X64364000Y-91805000D02*
X64364000Y-89686000D01*
X64404000Y-87606000D02*
X64404000Y-85479000D01*
X64404000Y-91813000D02*
X64404000Y-89686000D01*
X64444000Y-87606000D02*
X64444000Y-85471000D01*
X64444000Y-91821000D02*
X64444000Y-89686000D01*
X64484000Y-87606000D02*
X64484000Y-85464000D01*
X64484000Y-91828000D02*
X64484000Y-89686000D01*
X64524000Y-87606000D02*
X64524000Y-85457000D01*
X64524000Y-91835000D02*
X64524000Y-89686000D01*
X64564000Y-87606000D02*
X64564000Y-85451000D01*
X64564000Y-91841000D02*
X64564000Y-89686000D01*
X64604000Y-87606000D02*
X64604000Y-85445000D01*
X64604000Y-91847000D02*
X64604000Y-89686000D01*
X64644000Y-87606000D02*
X64644000Y-85440000D01*
X64644000Y-91852000D02*
X64644000Y-89686000D01*
X64684000Y-87606000D02*
X64684000Y-85435000D01*
X64684000Y-91857000D02*
X64684000Y-89686000D01*
X64724000Y-87606000D02*
X64724000Y-85431000D01*
X64724000Y-91861000D02*
X64724000Y-89686000D01*
X64764000Y-87606000D02*
X64764000Y-85428000D01*
X64764000Y-91864000D02*
X64764000Y-89686000D01*
X64804000Y-87606000D02*
X64804000Y-85424000D01*
X64804000Y-91868000D02*
X64804000Y-89686000D01*
X64844000Y-91870000D02*
X64844000Y-85422000D01*
X64884000Y-91873000D02*
X64884000Y-85419000D01*
X64924000Y-91874000D02*
X64924000Y-85418000D01*
X64964000Y-91876000D02*
X64964000Y-85416000D01*
X65004000Y-91876000D02*
X65004000Y-85416000D01*
X65044000Y-91876000D02*
X65044000Y-85416000D01*
X68314000Y-88646000D02*
G75*
G03X68314000Y-88646000I-3270000J0D01*
G01*
X99716335Y-77915392D02*
G75*
G03X96484000Y-77758484I-1672335J-1078608D01*
G01*
X99716335Y-80072608D02*
G75*
G02X96484000Y-80229516I-1672335J1078608D01*
G01*
X99085130Y-77914163D02*
G75*
G03X97003039Y-77914000I-1041130J-1079837D01*
G01*
X99085130Y-80073837D02*
G75*
G02X97003039Y-80074000I-1041130J1079837D01*
G01*
X96484000Y-77758000D02*
X96484000Y-77914000D01*
X96484000Y-80074000D02*
X96484000Y-80230000D01*
X90318335Y-77407392D02*
G75*
G03X87086000Y-77250484I-1672335J-1078608D01*
G01*
X90318335Y-79564608D02*
G75*
G02X87086000Y-79721516I-1672335J1078608D01*
G01*
X89687130Y-77406163D02*
G75*
G03X87605039Y-77406000I-1041130J-1079837D01*
G01*
X89687130Y-79565837D02*
G75*
G02X87605039Y-79566000I-1041130J1079837D01*
G01*
X87086000Y-77250000D02*
X87086000Y-77406000D01*
X87086000Y-79566000D02*
X87086000Y-79722000D01*
D11*
X64846000Y-80836000D02*
X64546000Y-80986000D01*
X64846000Y-80536000D02*
X64846000Y-80836000D01*
X64846000Y-76136000D02*
X64846000Y-76436000D01*
X64846000Y-76136000D02*
X64546000Y-75986000D01*
D10*
X61696000Y-76536000D02*
G75*
G03X61646000Y-80386000I1900000J-1950000D01*
G01*
D12*
X57500000Y-101742000D02*
X59340000Y-101742000D01*
X59340000Y-101742000D02*
X59340000Y-97902000D01*
X59340000Y-97902000D02*
X57500000Y-97902000D01*
X57500000Y-97902000D02*
X57500000Y-101742000D01*
X58420000Y-102692000D02*
X58420000Y-101742000D01*
X58420000Y-96952000D02*
X58420000Y-97902000D01*
X63222000Y-103346000D02*
X62892000Y-103346000D01*
X62892000Y-103346000D02*
X62892000Y-96806000D01*
X62892000Y-96806000D02*
X63222000Y-96806000D01*
X65302000Y-103346000D02*
X65632000Y-103346000D01*
X65632000Y-103346000D02*
X65632000Y-96806000D01*
X65632000Y-96806000D02*
X65302000Y-96806000D01*
X70258000Y-103346000D02*
X70588000Y-103346000D01*
X70258000Y-96806000D02*
X70258000Y-103346000D01*
X70588000Y-96806000D02*
X70258000Y-96806000D01*
X72998000Y-103346000D02*
X72668000Y-103346000D01*
X72998000Y-96806000D02*
X72998000Y-103346000D01*
X72668000Y-96806000D02*
X72998000Y-96806000D01*
X79780000Y-97060000D02*
X80110000Y-97060000D01*
X80110000Y-97060000D02*
X80110000Y-103600000D01*
X80110000Y-103600000D02*
X79780000Y-103600000D01*
X77700000Y-97060000D02*
X77370000Y-97060000D01*
X77370000Y-97060000D02*
X77370000Y-103600000D01*
X77370000Y-103600000D02*
X77700000Y-103600000D01*
X75208000Y-84106000D02*
X75538000Y-84106000D01*
X75538000Y-84106000D02*
X75538000Y-90646000D01*
X75538000Y-90646000D02*
X75208000Y-90646000D01*
X73128000Y-84106000D02*
X72798000Y-84106000D01*
X72798000Y-84106000D02*
X72798000Y-90646000D01*
X72798000Y-90646000D02*
X73128000Y-90646000D01*
X94588000Y-96298000D02*
X94258000Y-96298000D01*
X94588000Y-102838000D02*
X94588000Y-96298000D01*
X94258000Y-102838000D02*
X94588000Y-102838000D01*
X91848000Y-96298000D02*
X92178000Y-96298000D01*
X91848000Y-102838000D02*
X91848000Y-96298000D01*
X92178000Y-102838000D02*
X91848000Y-102838000D01*
X87370000Y-96920000D02*
X87040000Y-96920000D01*
X87370000Y-103460000D02*
X87370000Y-96920000D01*
X87040000Y-103460000D02*
X87370000Y-103460000D01*
X84630000Y-96920000D02*
X84960000Y-96920000D01*
X84630000Y-103460000D02*
X84630000Y-96920000D01*
X84960000Y-103460000D02*
X84630000Y-103460000D01*
D11*
X67606000Y-133790000D02*
X68106000Y-133790000D01*
X67606000Y-133790000D02*
X67606000Y-134290000D01*
X79506000Y-133790000D02*
X79006000Y-133790000D01*
X79506000Y-133790000D02*
X79506000Y-134290000D01*
X79506000Y-137990000D02*
X79006000Y-137990000D01*
X79506000Y-137990000D02*
X79506000Y-137490000D01*
X67606000Y-137990000D02*
X67606000Y-137490000D01*
X67606000Y-137990000D02*
X68106000Y-137990000D01*
D13*
X66040000Y-115824000D02*
X66040000Y-122936000D01*
X76200000Y-115824000D02*
X76200000Y-122936000D01*
D14*
X66294000Y-123825000D02*
G75*
G03X66294000Y-123825000I-254000J0D01*
G01*
D10*
X49494274Y-113352271D02*
X49637131Y-113399890D01*
X49684750Y-113447509D01*
X49732369Y-113542747D01*
X49732369Y-113685604D01*
X49684750Y-113780842D01*
X49637131Y-113828461D01*
X49541893Y-113876080D01*
X49160940Y-113876080D01*
X49160940Y-112876080D01*
X49494274Y-112876080D01*
X49589512Y-112923700D01*
X49637131Y-112971319D01*
X49684750Y-113066557D01*
X49684750Y-113161795D01*
X49637131Y-113257033D01*
X49589512Y-113304652D01*
X49494274Y-113352271D01*
X49160940Y-113352271D01*
X50113321Y-113590366D02*
X50589512Y-113590366D01*
X50018083Y-113876080D02*
X50351417Y-112876080D01*
X50684750Y-113876080D01*
X50875226Y-112876080D02*
X51446655Y-112876080D01*
X51160940Y-113876080D02*
X51160940Y-112876080D01*
X52303798Y-113876080D02*
X51732369Y-113876080D01*
X52018083Y-113876080D02*
X52018083Y-112876080D01*
X51922845Y-113018938D01*
X51827607Y-113114176D01*
X51732369Y-113161795D01*
X70461333Y-125385142D02*
X70413714Y-125432761D01*
X70270857Y-125480380D01*
X70175619Y-125480380D01*
X70032761Y-125432761D01*
X69937523Y-125337523D01*
X69889904Y-125242285D01*
X69842285Y-125051809D01*
X69842285Y-124908952D01*
X69889904Y-124718476D01*
X69937523Y-124623238D01*
X70032761Y-124528000D01*
X70175619Y-124480380D01*
X70270857Y-124480380D01*
X70413714Y-124528000D01*
X70461333Y-124575619D01*
X71413714Y-125480380D02*
X70842285Y-125480380D01*
X71128000Y-125480380D02*
X71128000Y-124480380D01*
X71032761Y-124623238D01*
X70937523Y-124718476D01*
X70842285Y-124766095D01*
X64877333Y-93403142D02*
X64829714Y-93450761D01*
X64686857Y-93498380D01*
X64591619Y-93498380D01*
X64448761Y-93450761D01*
X64353523Y-93355523D01*
X64305904Y-93260285D01*
X64258285Y-93069809D01*
X64258285Y-92926952D01*
X64305904Y-92736476D01*
X64353523Y-92641238D01*
X64448761Y-92546000D01*
X64591619Y-92498380D01*
X64686857Y-92498380D01*
X64829714Y-92546000D01*
X64877333Y-92593619D01*
X65258285Y-92593619D02*
X65305904Y-92546000D01*
X65401142Y-92498380D01*
X65639238Y-92498380D01*
X65734476Y-92546000D01*
X65782095Y-92593619D01*
X65829714Y-92688857D01*
X65829714Y-92784095D01*
X65782095Y-92926952D01*
X65210666Y-93498380D01*
X65829714Y-93498380D01*
X97305904Y-76486380D02*
X97305904Y-75486380D01*
X97544000Y-75486380D01*
X97686857Y-75534000D01*
X97782095Y-75629238D01*
X97829714Y-75724476D01*
X97877333Y-75914952D01*
X97877333Y-76057809D01*
X97829714Y-76248285D01*
X97782095Y-76343523D01*
X97686857Y-76438761D01*
X97544000Y-76486380D01*
X97305904Y-76486380D01*
X98829714Y-76486380D02*
X98258285Y-76486380D01*
X98544000Y-76486380D02*
X98544000Y-75486380D01*
X98448761Y-75629238D01*
X98353523Y-75724476D01*
X98258285Y-75772095D01*
X87907904Y-75978380D02*
X87907904Y-74978380D01*
X88146000Y-74978380D01*
X88288857Y-75026000D01*
X88384095Y-75121238D01*
X88431714Y-75216476D01*
X88479333Y-75406952D01*
X88479333Y-75549809D01*
X88431714Y-75740285D01*
X88384095Y-75835523D01*
X88288857Y-75930761D01*
X88146000Y-75978380D01*
X87907904Y-75978380D01*
X88860285Y-75073619D02*
X88907904Y-75026000D01*
X89003142Y-74978380D01*
X89241238Y-74978380D01*
X89336476Y-75026000D01*
X89384095Y-75073619D01*
X89431714Y-75168857D01*
X89431714Y-75264095D01*
X89384095Y-75406952D01*
X88812666Y-75978380D01*
X89431714Y-75978380D01*
X60443619Y-78581238D02*
X60396000Y-78676476D01*
X60300761Y-78771714D01*
X60157904Y-78914571D01*
X60110285Y-79009809D01*
X60110285Y-79105047D01*
X60348380Y-79057428D02*
X60300761Y-79152666D01*
X60205523Y-79247904D01*
X60015047Y-79295523D01*
X59681714Y-79295523D01*
X59491238Y-79247904D01*
X59396000Y-79152666D01*
X59348380Y-79057428D01*
X59348380Y-78866952D01*
X59396000Y-78771714D01*
X59491238Y-78676476D01*
X59681714Y-78628857D01*
X60015047Y-78628857D01*
X60205523Y-78676476D01*
X60300761Y-78771714D01*
X60348380Y-78866952D01*
X60348380Y-79057428D01*
X60348380Y-77676476D02*
X60348380Y-78247904D01*
X60348380Y-77962190D02*
X59348380Y-77962190D01*
X59491238Y-78057428D01*
X59586476Y-78152666D01*
X59634095Y-78247904D01*
X56952380Y-99988666D02*
X56476190Y-100322000D01*
X56952380Y-100560095D02*
X55952380Y-100560095D01*
X55952380Y-100179142D01*
X56000000Y-100083904D01*
X56047619Y-100036285D01*
X56142857Y-99988666D01*
X56285714Y-99988666D01*
X56380952Y-100036285D01*
X56428571Y-100083904D01*
X56476190Y-100179142D01*
X56476190Y-100560095D01*
X56952380Y-99036285D02*
X56952380Y-99607714D01*
X56952380Y-99322000D02*
X55952380Y-99322000D01*
X56095238Y-99417238D01*
X56190476Y-99512476D01*
X56238095Y-99607714D01*
X62344380Y-100242666D02*
X61868190Y-100576000D01*
X62344380Y-100814095D02*
X61344380Y-100814095D01*
X61344380Y-100433142D01*
X61392000Y-100337904D01*
X61439619Y-100290285D01*
X61534857Y-100242666D01*
X61677714Y-100242666D01*
X61772952Y-100290285D01*
X61820571Y-100337904D01*
X61868190Y-100433142D01*
X61868190Y-100814095D01*
X61439619Y-99861714D02*
X61392000Y-99814095D01*
X61344380Y-99718857D01*
X61344380Y-99480761D01*
X61392000Y-99385523D01*
X61439619Y-99337904D01*
X61534857Y-99290285D01*
X61630095Y-99290285D01*
X61772952Y-99337904D01*
X62344380Y-99909333D01*
X62344380Y-99290285D01*
X74450380Y-100242666D02*
X73974190Y-100576000D01*
X74450380Y-100814095D02*
X73450380Y-100814095D01*
X73450380Y-100433142D01*
X73498000Y-100337904D01*
X73545619Y-100290285D01*
X73640857Y-100242666D01*
X73783714Y-100242666D01*
X73878952Y-100290285D01*
X73926571Y-100337904D01*
X73974190Y-100433142D01*
X73974190Y-100814095D01*
X73450380Y-99909333D02*
X73450380Y-99290285D01*
X73831333Y-99623619D01*
X73831333Y-99480761D01*
X73878952Y-99385523D01*
X73926571Y-99337904D01*
X74021809Y-99290285D01*
X74259904Y-99290285D01*
X74355142Y-99337904D01*
X74402761Y-99385523D01*
X74450380Y-99480761D01*
X74450380Y-99766476D01*
X74402761Y-99861714D01*
X74355142Y-99909333D01*
X81562380Y-100496666D02*
X81086190Y-100830000D01*
X81562380Y-101068095D02*
X80562380Y-101068095D01*
X80562380Y-100687142D01*
X80610000Y-100591904D01*
X80657619Y-100544285D01*
X80752857Y-100496666D01*
X80895714Y-100496666D01*
X80990952Y-100544285D01*
X81038571Y-100591904D01*
X81086190Y-100687142D01*
X81086190Y-101068095D01*
X80895714Y-99639523D02*
X81562380Y-99639523D01*
X80514761Y-99877619D02*
X81229047Y-100115714D01*
X81229047Y-99496666D01*
X76990380Y-87542666D02*
X76514190Y-87876000D01*
X76990380Y-88114095D02*
X75990380Y-88114095D01*
X75990380Y-87733142D01*
X76038000Y-87637904D01*
X76085619Y-87590285D01*
X76180857Y-87542666D01*
X76323714Y-87542666D01*
X76418952Y-87590285D01*
X76466571Y-87637904D01*
X76514190Y-87733142D01*
X76514190Y-88114095D01*
X75990380Y-86637904D02*
X75990380Y-87114095D01*
X76466571Y-87161714D01*
X76418952Y-87114095D01*
X76371333Y-87018857D01*
X76371333Y-86780761D01*
X76418952Y-86685523D01*
X76466571Y-86637904D01*
X76561809Y-86590285D01*
X76799904Y-86590285D01*
X76895142Y-86637904D01*
X76942761Y-86685523D01*
X76990380Y-86780761D01*
X76990380Y-87018857D01*
X76942761Y-87114095D01*
X76895142Y-87161714D01*
X91300380Y-99734666D02*
X90824190Y-100068000D01*
X91300380Y-100306095D02*
X90300380Y-100306095D01*
X90300380Y-99925142D01*
X90348000Y-99829904D01*
X90395619Y-99782285D01*
X90490857Y-99734666D01*
X90633714Y-99734666D01*
X90728952Y-99782285D01*
X90776571Y-99829904D01*
X90824190Y-99925142D01*
X90824190Y-100306095D01*
X90300380Y-98877523D02*
X90300380Y-99068000D01*
X90348000Y-99163238D01*
X90395619Y-99210857D01*
X90538476Y-99306095D01*
X90728952Y-99353714D01*
X91109904Y-99353714D01*
X91205142Y-99306095D01*
X91252761Y-99258476D01*
X91300380Y-99163238D01*
X91300380Y-98972761D01*
X91252761Y-98877523D01*
X91205142Y-98829904D01*
X91109904Y-98782285D01*
X90871809Y-98782285D01*
X90776571Y-98829904D01*
X90728952Y-98877523D01*
X90681333Y-98972761D01*
X90681333Y-99163238D01*
X90728952Y-99258476D01*
X90776571Y-99306095D01*
X90871809Y-99353714D01*
X84082380Y-100356666D02*
X83606190Y-100690000D01*
X84082380Y-100928095D02*
X83082380Y-100928095D01*
X83082380Y-100547142D01*
X83130000Y-100451904D01*
X83177619Y-100404285D01*
X83272857Y-100356666D01*
X83415714Y-100356666D01*
X83510952Y-100404285D01*
X83558571Y-100451904D01*
X83606190Y-100547142D01*
X83606190Y-100928095D01*
X83082380Y-100023333D02*
X83082380Y-99356666D01*
X84082380Y-99785238D01*
X72654095Y-139314761D02*
X72796952Y-139362380D01*
X73035047Y-139362380D01*
X73130285Y-139314761D01*
X73177904Y-139267142D01*
X73225523Y-139171904D01*
X73225523Y-139076666D01*
X73177904Y-138981428D01*
X73130285Y-138933809D01*
X73035047Y-138886190D01*
X72844571Y-138838571D01*
X72749333Y-138790952D01*
X72701714Y-138743333D01*
X72654095Y-138648095D01*
X72654095Y-138552857D01*
X72701714Y-138457619D01*
X72749333Y-138410000D01*
X72844571Y-138362380D01*
X73082666Y-138362380D01*
X73225523Y-138410000D01*
X74177904Y-139362380D02*
X73606476Y-139362380D01*
X73892190Y-139362380D02*
X73892190Y-138362380D01*
X73796952Y-138505238D01*
X73701714Y-138600476D01*
X73606476Y-138648095D01*
X70358095Y-112482380D02*
X70358095Y-113291904D01*
X70405714Y-113387142D01*
X70453333Y-113434761D01*
X70548571Y-113482380D01*
X70739047Y-113482380D01*
X70834285Y-113434761D01*
X70881904Y-113387142D01*
X70929523Y-113291904D01*
X70929523Y-112482380D01*
X71929523Y-113482380D02*
X71358095Y-113482380D01*
X71643809Y-113482380D02*
X71643809Y-112482380D01*
X71548571Y-112625238D01*
X71453333Y-112720476D01*
X71358095Y-112768095D01*
D15*
G36*
X106873000Y-86873000D02*
G01*
X84127000Y-86873000D01*
X84127000Y-73127000D01*
X106873000Y-73127000D01*
X106873000Y-86873000D01*
G37*
X106873000Y-86873000D02*
X84127000Y-86873000D01*
X84127000Y-73127000D01*
X106873000Y-73127000D01*
X106873000Y-86873000D01*
M02*
